<svg width="138" height="61" viewBox="0 0 138 61" fill="none" xmlns="http://www.w3.org/2000/svg">
<g clip-path="url(#clip0_25_483)">
<path d="M13.2016 47.8659C11.1363 48.4734 10.1104 48.7838 8.04517 49.4452C5.8314 42.4935 4.71103 39.0109 2.48376 32.0456C4.46805 31.4247 5.46694 31.1142 7.45123 30.5203C10.9339 29.5079 12.8506 30.5203 13.5256 33.1255C13.7416 33.9219 13.8495 34.3134 14.052 35.0963C14.1796 36.0906 13.9551 37.0983 13.4176 37.9445C13.4176 37.9445 15.3749 38.9299 15.7123 40.1987C15.9958 41.2516 16.1308 41.7781 16.4142 42.8175C17.1297 45.5172 15.8743 47.11 13.2016 47.8659ZM9.59749 34.3673C9.5756 34.2329 9.5245 34.1049 9.44779 33.9924C9.37108 33.8799 9.27062 33.7856 9.1535 33.7161C9.03638 33.6466 8.90546 33.6036 8.76994 33.5902C8.63441 33.5768 8.49759 33.5932 8.36912 33.6384L7.45123 33.9219C7.93717 35.5552 8.19365 36.3786 8.6796 37.9715L9.39502 37.7555C10.1104 37.5395 10.4074 37.1076 10.2049 36.4056L9.59749 34.3673ZM11.8247 41.1166C11.7985 40.9708 11.7406 40.8325 11.655 40.7115C11.5695 40.5905 11.4585 40.4897 11.3297 40.4164C11.201 40.343 11.0577 40.2987 10.91 40.2868C10.7623 40.2749 10.6137 40.2955 10.4749 40.3472L9.47601 40.6442C10.016 42.4935 10.2994 43.4249 10.8259 45.2607L11.7978 44.9772C11.9412 44.9481 12.0765 44.8879 12.1941 44.8007C12.3116 44.7136 12.4086 44.6017 12.4781 44.4729C12.5477 44.3441 12.588 44.2016 12.5964 44.0555C12.6048 43.9094 12.581 43.7633 12.5267 43.6274C12.2567 42.5745 12.1082 42.075 11.8247 41.1166Z" fill="#F0D9BF"/>
<path d="M25.7958 44.6668L24.4459 41.1166L22.2726 41.6161C22.4211 43.1144 22.4886 43.8704 22.6506 45.3822C21.1793 45.7332 20.4503 45.9086 18.979 46.2866C18.1826 38.9434 17.8316 35.2718 17.2377 27.9016C19.5324 27.3346 20.6933 27.0781 23.0015 26.5517C25.7013 33.4495 26.9566 36.9186 29.4269 43.8703C28.0095 44.1943 27.2671 44.3428 25.7958 44.6668ZM22.0296 33.8679C21.5842 32.6126 21.0713 30.9522 21.0713 30.9522H21.0038C21.0038 30.9522 21.2737 32.68 21.4222 33.9894C21.6247 35.7712 21.7327 36.6891 21.9487 38.4439L23.4875 38.093L22.0296 33.8679Z" fill="#F0D9BF"/>
<path d="M37.1075 42.4665L36.0951 36.1221C35.9872 35.4877 35.5822 35.2177 35.0963 35.2987L34.1109 35.4607C34.5968 38.3764 34.8533 39.8343 35.3392 42.7499C33.8274 43.0064 33.0714 43.1414 31.5596 43.4384C30.2097 36.2571 29.5078 32.6395 28.1445 25.4988C30.1828 25.1073 31.1952 24.9318 33.2335 24.5944C36.7701 24.0004 38.5384 25.2288 38.9163 27.915C39.0378 28.8464 39.1053 29.2649 39.2403 30.2368C39.1789 31.3387 38.7514 32.3887 38.0254 33.22C38.0254 33.22 39.8343 34.4348 40.0232 35.7307C40.3607 38.2009 40.5362 39.4293 40.8871 41.886C39.3753 42.156 38.6194 42.2775 37.1075 42.4665ZM35.0152 29.3864C35.0152 29.0759 34.9342 28.9274 34.8938 28.6304C34.8896 28.4939 34.855 28.3601 34.7925 28.2386C34.73 28.1172 34.6412 28.0112 34.5326 27.9284C34.424 27.8457 34.2982 27.7882 34.1645 27.7602C34.0309 27.7322 33.8926 27.7343 33.7599 27.7665L32.8285 27.9285C33.1119 29.6428 33.2604 30.4932 33.5574 32.2076L34.5563 32.0321C34.6795 32.0142 34.7973 31.9698 34.9018 31.9021C35.0062 31.8344 35.0948 31.745 35.1615 31.6398C35.2281 31.5347 35.2713 31.4164 35.288 31.2931C35.3047 31.1698 35.2945 31.0443 35.2582 30.9252C35.1638 30.3178 35.1097 30.0478 35.0152 29.4404V29.3864Z" fill="#F0D9BF"/>
<path d="M49.0808 40.9546C46.948 41.1706 45.8951 41.2786 43.7758 41.5486C42.8579 34.2998 42.426 30.7497 41.4946 23.4335C43.5463 23.177 44.5588 23.0555 46.6105 22.8531C50.1742 22.4886 51.848 23.8115 52.01 26.5247C52.0775 27.3346 52.1044 27.7395 52.1719 28.563C52.1172 29.5694 51.7112 30.5248 51.0246 31.2627C51.0246 31.2627 52.7523 32.6125 52.8603 33.9624L53.0628 36.6621C53.3733 39.3483 51.8615 40.6847 49.0808 40.9546ZM48.0144 26.9971C48.0202 26.8608 47.9956 26.7248 47.9422 26.5992C47.8889 26.4736 47.8082 26.3614 47.7061 26.2709C47.6039 26.1804 47.4828 26.1138 47.3517 26.076C47.2206 26.0381 47.0827 26.03 46.948 26.0522L46.0031 26.1602C46.1786 27.861 46.273 28.7114 46.4485 30.4123L47.191 30.3313C47.9334 30.3313 48.2978 29.8858 48.2303 29.1704C48.1628 28.455 48.1358 27.861 48.0549 26.9971H48.0144ZM48.9728 34.0164C48.978 33.8652 48.9487 33.7147 48.8873 33.5765C48.8259 33.4382 48.7338 33.3157 48.6181 33.2182C48.5024 33.1207 48.3661 33.0507 48.2194 33.0136C48.0727 32.9765 47.9195 32.9732 47.7714 33.004L46.7455 33.112C46.948 35.0288 47.0425 35.9872 47.245 37.904L48.2574 37.796C48.4063 37.796 48.5533 37.7622 48.6873 37.6973C48.8213 37.6323 48.9388 37.5378 49.0311 37.4209C49.1233 37.304 49.1878 37.1676 49.2198 37.0222C49.2518 36.8767 49.2504 36.7259 49.2157 36.5811C49.1618 35.5552 49.0808 35.0423 49.0808 34.0164H48.9728Z" fill="#F0D9BF"/>
<path d="M56.0325 40.3877C55.5736 33.0985 55.3306 29.4539 54.8717 22.1646C58.1653 21.9622 59.8122 21.8812 63.1058 21.8002C63.1058 23.15 63.1058 23.7845 63.1868 25.1073L59.1372 25.2423C59.2182 26.8081 59.2452 27.5911 59.3127 29.1569L62.7818 29.0354C62.7818 30.3853 62.7818 30.9927 62.8628 32.2886C61.5129 32.2886 60.811 32.2886 59.4342 32.41L59.6367 36.8916C61.162 36.8916 61.9179 36.7971 63.4433 36.7566C63.4433 38.1064 63.4433 38.7409 63.5243 40.0502C60.5546 40.1312 59.0427 40.1987 56.0325 40.3877Z" fill="#F0D9BF"/>
<path d="M71.6234 40.0097C71.6234 37.445 71.6233 36.1626 71.7178 33.5979C71.7178 32.95 71.3669 32.6125 70.8809 32.6125H69.8821C69.8821 35.5687 69.8821 37.0536 69.8821 40.0097C68.3432 40.0097 67.5738 40.0097 66.0485 40.0097C65.9405 32.707 65.9 29.0489 65.792 21.7462C67.8573 21.7462 68.8832 21.7462 70.9349 21.7462C74.5121 21.7462 76.0374 23.285 75.9429 25.9982C75.9429 26.9431 75.9429 27.3481 75.8619 28.347C75.8619 29.6968 74.1476 31.0467 74.1476 31.0467C74.1476 31.0467 75.7269 32.545 75.6729 33.8679L75.4704 40.0772C73.9046 40.0502 73.1487 40.0367 71.6234 40.0097ZM71.8258 26.7676V26.0117C71.8461 25.8769 71.8361 25.7392 71.7965 25.6088C71.7569 25.4783 71.6887 25.3583 71.5969 25.2575C71.5052 25.1566 71.392 25.0775 71.2659 25.0259C71.1397 24.9742 71.0036 24.9513 70.8675 24.9588H69.9225C69.9225 26.6867 69.9225 27.5641 69.9225 29.2919H70.9485C71.0721 29.2926 71.1944 29.2672 71.3075 29.2173C71.4207 29.1674 71.522 29.0942 71.6048 29.0024C71.6876 28.9107 71.7501 28.8024 71.7882 28.6848C71.8263 28.5672 71.8392 28.4429 71.8258 28.32C71.7989 27.7125 71.8124 27.3886 71.8258 26.7676Z" fill="#F0D9BF"/>
<path d="M88.51 41.1976C85.6618 40.9142 83.799 39.2134 84.0015 36.5946L84.1365 34.6373C85.7158 34.7588 86.4988 34.8263 88.0781 34.9748C88.0106 35.7442 87.9701 36.1222 87.8891 36.8916C87.8702 37.0292 87.8802 37.1692 87.9184 37.3028C87.9567 37.4363 88.0224 37.5604 88.1113 37.6671C88.2002 37.7738 88.3104 37.8607 88.4349 37.9225C88.5593 37.9842 88.6952 38.0193 88.834 38.0255C89.5359 38.093 90.0084 37.7015 90.1029 36.7431C90.1535 36.3776 90.1255 36.0054 90.0208 35.6516C89.916 35.2978 89.7369 34.9704 89.4954 34.6913C88.3075 33.3415 87.7136 32.6665 86.4852 31.3437C85.8969 30.7415 85.4556 30.0116 85.1957 29.2108C84.9358 28.4101 84.8643 27.5601 84.9869 26.7272C85.2164 23.7575 87.0657 22.2592 90.3863 22.5831C93.707 22.9071 95.1378 24.7024 94.8139 27.3076C94.7194 28.0905 94.6654 28.482 94.5709 29.2514C93.0321 29.0624 92.2491 28.9814 90.7103 28.8195L90.9128 26.8892C90.9424 26.7595 90.9434 26.6249 90.9159 26.4948C90.8883 26.3647 90.8329 26.2421 90.7533 26.1355C90.6737 26.029 90.5719 25.941 90.4549 25.8777C90.338 25.8143 90.2086 25.7772 90.0759 25.7688C89.4144 25.7013 89.0095 26.2817 88.9285 27.1186C88.8773 27.456 88.8991 27.8005 88.9922 28.1288C89.0853 28.4571 89.2477 28.7616 89.4684 29.0219C90.6968 30.3718 91.2907 31.0467 92.4786 32.4236C93.0531 33.0423 93.4745 33.7872 93.7089 34.5983C93.9434 35.4094 93.9843 36.2642 93.8284 37.0941C93.464 40.0098 91.5742 41.5081 88.51 41.1976Z" fill="#F0D9BF"/>
<path d="M101.469 42.7095C101.982 39.6588 102.238 38.1334 102.738 35.0828L100.848 34.7723C100.362 37.823 100.132 39.3483 99.6464 42.4125C98.121 42.1695 97.3516 42.048 95.8128 41.8455C96.8117 34.6103 97.3111 31.0467 98.2965 23.7575C99.9703 23.987 100.807 24.1084 102.481 24.3649L101.334 31.6676L103.264 31.9781L104.479 24.7429C106.153 25.0263 106.976 25.1748 108.65 25.4853C107.3 32.6665 106.625 36.2841 105.289 43.4384C103.763 43.1009 102.994 42.9524 101.469 42.7095Z" fill="#F0D9BF"/>
<path d="M112.699 45.1662C109.878 44.5318 108.326 42.6285 108.839 40.0502C109.662 36.0007 110.067 33.9894 110.877 29.9398C111.404 27.3616 113.752 26.2277 116.83 26.9296C119.908 27.6316 121.554 29.6293 120.88 32.2211C119.881 36.2706 119.368 38.2144 118.369 42.21C117.748 44.7342 115.507 45.7736 112.699 45.1662ZM116.844 31.3437C116.877 31.2159 116.885 31.0826 116.866 30.9518C116.846 30.821 116.8 30.6956 116.731 30.5831C116.661 30.4707 116.57 30.3736 116.461 30.2978C116.353 30.222 116.231 30.1691 116.101 30.1423C115.973 30.1128 115.841 30.1094 115.712 30.1324C115.583 30.1555 115.459 30.2044 115.35 30.2763C115.24 30.3482 115.146 30.4415 115.073 30.5507C115 30.6599 114.951 30.7827 114.927 30.9117C114.049 34.8533 113.577 36.8241 112.74 40.7522C112.712 40.8718 112.709 40.9957 112.729 41.1168C112.75 41.2378 112.794 41.3537 112.859 41.4577C112.924 41.5618 113.009 41.6519 113.109 41.7231C113.209 41.7943 113.322 41.8451 113.442 41.8725C113.561 41.9 113.685 41.9037 113.806 41.8833C113.928 41.8628 114.043 41.8188 114.147 41.7536C114.251 41.6884 114.342 41.6034 114.413 41.5034C114.484 41.4033 114.535 41.2903 114.562 41.1706C115.467 37.2155 115.926 35.2448 116.844 31.3167V31.3437Z" fill="#F0D9BF"/>
<path d="M127.021 41.8725L125.672 41.4946L123.849 47.7849C122.364 47.353 121.622 47.1505 120.124 46.7455L124.848 29.1164C126.886 29.6563 127.912 29.9398 129.937 30.4663C133.406 31.4921 134.473 33.3549 133.649 35.9467C133.217 37.2965 133.001 37.9849 132.556 39.3348C131.813 41.832 129.708 42.6689 127.021 41.8725ZM129.721 34.9073C129.776 34.7815 129.803 34.6451 129.799 34.5079C129.795 34.3707 129.761 34.2359 129.699 34.1134C129.637 33.9909 129.549 33.8835 129.441 33.7991C129.333 33.7146 129.207 33.6552 129.073 33.6249L128.061 33.3414C127.494 35.3257 127.197 36.3246 126.63 38.3224L127.467 38.5519C127.6 38.6142 127.746 38.645 127.893 38.6419C128.04 38.6388 128.185 38.6019 128.315 38.534C128.446 38.4662 128.559 38.3692 128.646 38.2505C128.733 38.1319 128.791 37.9948 128.817 37.85C129.181 36.6756 129.357 36.0817 129.708 34.9073H129.721Z" fill="#F0D9BF"/>
<path d="M1.25537 28.212C47.5554 15.6313 91.1827 14.9024 136.173 28.212C136.284 28.2483 136.4 28.2624 136.516 28.2533C136.632 28.2443 136.745 28.2123 136.848 28.1592C136.952 28.1062 137.044 28.0332 137.118 27.9443C137.193 27.8555 137.25 27.7527 137.285 27.6418C137.32 27.531 137.332 27.4143 137.322 27.2986C137.311 27.1829 137.277 27.0704 137.223 26.9677C137.169 26.865 137.094 26.7742 137.005 26.7004C136.915 26.6267 136.811 26.5715 136.7 26.5382C92.3767 13.0394 45.0386 13.0394 0.715432 26.5382C0.58782 26.5576 0.465925 26.6045 0.358235 26.6757C0.250546 26.7468 0.159603 26.8405 0.0917081 26.9503C0.0238135 27.0601 -0.0193944 27.1833 -0.0349645 27.3115C-0.0505345 27.4396 -0.0380942 27.5696 0.00153372 27.6924C0.0411616 27.8153 0.107016 27.9281 0.194529 28.0229C0.282042 28.1178 0.389141 28.1926 0.508389 28.242C0.627636 28.2914 0.756176 28.3143 0.885152 28.3091C1.01413 28.3039 1.14046 28.2708 1.25537 28.212Z" fill="#F0D9BF"/>
<path d="M9.93496 55.3441C50.2687 44.3833 88.2942 43.7623 127.494 55.3441C127.705 55.3835 127.922 55.3446 128.106 55.2345C128.29 55.1245 128.427 54.9511 128.492 54.7469C128.557 54.5427 128.544 54.3218 128.458 54.126C128.371 53.9302 128.215 53.7729 128.02 53.6838C89.3446 41.9804 48.0709 41.9804 9.39503 53.6838C9.19608 53.7715 9.03676 53.9299 8.94799 54.1284C8.85921 54.3269 8.8473 54.5512 8.91454 54.758C8.98178 54.9647 9.1234 55.1392 9.31194 55.2475C9.50048 55.3558 9.72248 55.3902 9.93496 55.3441Z" fill="#F0D9BF"/>
<path d="M34.7048 9.449C35.2717 8.66608 34.7048 7.64019 33.3549 7.64019C32.0051 7.64019 30.7902 8.26113 29.6563 7.64019C29.0354 8.45011 29.7508 9.77296 31.0062 9.77296C31.6671 9.71823 32.3194 9.58687 32.95 9.38151C32.788 11.7438 31.6001 12.9586 30.4528 12.9586C28.5495 12.9586 27.7531 11.0958 27.7531 8.90905C27.7531 5.04847 29.4674 1.51184 31.1142 1.51184C32.3695 1.51184 32.275 3.25315 31.3031 3.82009C31.4047 4.02972 31.5587 4.20951 31.7503 4.34197C31.9419 4.47443 32.1646 4.55506 32.3966 4.57602C34.4078 4.57602 34.9883 0.0404968 31.3842 0.0404968C27.7801 0.0404968 25.0803 4.41403 25.0803 9.23302C25.0803 12.1352 26.4302 14.7539 29.3594 14.7539C31.5327 14.7539 33.7599 13.1611 34.0704 9.27352C34.1825 9.25586 34.2971 9.26238 34.4066 9.29265C34.516 9.32291 34.6177 9.37622 34.7048 9.449Z" fill="#F0D9BF"/>
<path d="M100.591 11.9867C100.294 12.6616 99.8624 12.8911 99.5249 12.8911C99.1874 12.8911 98.904 12.4727 99.1064 11.5413L99.9029 7.81567C100.321 5.83138 99.6194 5.03496 98.6205 5.03496C97.9916 5.08627 97.3833 5.28387 96.8443 5.61198C96.3052 5.94009 95.8503 6.38964 95.5158 6.92476L95.7048 6.07435C95.8803 5.35893 95.4753 5.03496 94.8004 5.03496C94.0123 5.08933 93.2656 5.40798 92.6811 5.93936C92.6067 6.00398 92.5471 6.08382 92.5062 6.17348C92.4654 6.26313 92.4442 6.36052 92.4442 6.45906C92.4442 6.55759 92.4654 6.65498 92.5062 6.74463C92.5471 6.83429 92.6067 6.91413 92.6811 6.97875C92.8566 6.83027 92.9646 6.76277 93.0591 6.76277C93.1536 6.76277 93.3291 6.92476 93.2481 7.23523L92.4246 11.0553C91.9478 11.6432 91.3558 12.1273 90.6849 12.4779C90.014 12.8284 89.2785 13.038 88.5236 13.0936C88.1138 13.1366 87.7031 13.0205 87.3765 12.7693C87.0499 12.518 86.8323 12.1509 86.7688 11.7437C90.4134 9.71896 91.2638 8.4366 91.2638 6.83027C91.2638 5.97986 90.8318 5.02146 89.1175 5.02146C85.9859 5.02146 84.366 8.94955 84.366 11.4063C84.3672 11.6642 84.3898 11.9215 84.4335 12.1757C83.9323 12.6499 83.2851 12.9401 82.5977 12.9991C82.2197 12.9991 81.9768 12.7696 82.0848 12.2162L83.0162 7.86966C83.5021 5.65589 82.2737 5.08895 81.4233 5.08895C80.8301 5.16371 80.2634 5.37912 79.7704 5.71723C79.2773 6.05534 78.8721 6.50636 78.5886 7.03275C78.6271 6.79811 78.6152 6.55797 78.5536 6.32831C78.4921 6.09865 78.3823 5.88474 78.2316 5.70083C78.0809 5.51692 77.8927 5.36723 77.6796 5.26172C77.4665 5.15622 77.2334 5.09732 76.9958 5.08895C76.4126 5.1566 75.8542 5.36363 75.3679 5.69255C74.8815 6.02148 74.4815 6.46264 74.2016 6.97875L74.3906 6.12835C74.5661 5.41292 74.1611 5.08895 73.4862 5.08895C72.6976 5.14123 71.9503 5.46016 71.3669 5.99336C71.2925 6.05798 71.2329 6.13782 71.192 6.22747C71.1511 6.31713 71.13 6.41452 71.13 6.51305C71.13 6.61159 71.1511 6.70897 71.192 6.79863C71.2329 6.88829 71.2925 6.96812 71.3669 7.03275C71.4642 6.91932 71.5978 6.84302 71.7449 6.81677C71.9069 6.81677 72.0013 6.97875 71.9338 7.28922L71.1104 11.1093C70.6326 11.696 70.0402 12.1793 69.3696 12.5297C68.6989 12.8802 67.9639 13.0904 67.2093 13.1476C66.7995 13.1906 66.3889 13.0745 66.0622 12.8233C65.7356 12.572 65.5181 12.2049 65.4545 11.7977C69.0992 9.77295 69.9495 8.49059 69.9495 6.88426C69.9495 6.03385 69.5176 5.07545 67.7898 5.07545C64.6716 5.07545 63.0518 9.00354 63.0518 11.4603C62.7344 11.8866 62.329 12.2399 61.8633 12.496C61.3975 12.7522 60.8822 12.9053 60.3521 12.9451C59.6907 12.9451 59.1912 12.5672 59.3262 11.5953C59.3262 11.3658 59.3262 11.1228 59.4207 10.8933C61.8639 7.16773 63.0923 4.14405 63.0923 2.67271C63.1104 2.46841 63.0839 2.26261 63.0147 2.06953C62.9455 1.87645 62.8353 1.70069 62.6915 1.55438C62.5478 1.40807 62.374 1.2947 62.1821 1.2221C61.9903 1.1495 61.7851 1.1194 61.5805 1.13387C59.0967 1.13387 57.8413 5.18344 56.9639 11.9327V12.1217C56.454 12.5908 55.8045 12.88 55.1146 12.9451C54.6287 12.9451 54.3182 12.5942 54.5477 11.5953L55.6681 6.27682H56.4915C57.0854 6.27682 57.3824 5.79088 57.2879 5.18344H55.938L56.4645 2.68621C56.1959 2.52395 55.8874 2.4398 55.5736 2.44323C55.2116 2.41879 54.8529 2.52533 54.563 2.7434C54.273 2.96148 54.0712 3.27655 53.9943 3.63111L53.6433 5.18344H53.2653C52.6849 5.18344 52.3879 5.68289 52.4824 6.27682H53.4273L52.2125 11.9867V12.2297C51.7239 12.674 51.1023 12.9445 50.4441 12.9991C50.0662 12.9991 49.8232 12.7696 49.9312 12.2162L50.8626 7.86966C51.2946 5.88537 50.5791 5.08895 49.5127 5.08895C48.8861 5.1423 48.2806 5.34085 47.744 5.66887C47.2075 5.99689 46.7547 6.44536 46.4216 6.97875L46.6106 6.12835C46.7725 5.41292 46.3811 5.08895 45.6926 5.08895C44.9088 5.14422 44.1666 5.46295 43.5869 5.99336C43.5104 6.05669 43.4489 6.1361 43.4067 6.22593C43.3644 6.31576 43.3426 6.41379 43.3426 6.51305C43.3426 6.61231 43.3644 6.71035 43.4067 6.80018C43.4489 6.89001 43.5104 6.96942 43.5869 7.03275C43.6842 6.91932 43.8177 6.84302 43.9648 6.81677C44.1268 6.81677 44.2213 6.97875 44.1538 7.28922L43.3304 11.1093C42.8525 11.696 42.2602 12.1793 41.5895 12.5297C40.9188 12.8802 40.1839 13.0904 39.4293 13.1476C39.0189 13.194 38.6064 13.0792 38.279 12.8274C37.9516 12.5755 37.7349 12.2064 37.6745 11.7977C41.3191 9.77295 42.1695 8.49059 42.1695 6.88426C42.1695 6.03385 41.7376 5.07545 40.0097 5.07545C36.8916 5.07545 35.2717 9.00354 35.2717 11.4603C35.2717 11.6493 35.2717 11.8247 35.2717 11.9867C34.9001 12.172 34.4832 12.247 34.0704 12.2027C34.0432 12.3699 34.0597 12.5413 34.118 12.7003C34.1764 12.8593 34.2748 13.0006 34.4037 13.1105C34.5326 13.2204 34.6877 13.2952 34.8539 13.3277C35.0201 13.3602 35.1919 13.3493 35.3527 13.2961L35.5822 13.2016C35.8436 13.7307 36.2567 14.17 36.7688 14.4633C37.2809 14.7566 37.8688 14.8907 38.4574 14.8484C40.1679 14.757 41.7796 14.0187 42.9659 12.7831L42.5745 14.6054C42.8422 14.7697 43.1513 14.854 43.4654 14.8484C43.8273 14.8729 44.186 14.7663 44.476 14.5482C44.7659 14.3302 44.9678 14.0151 45.0447 13.6605L46.2056 8.26112C46.6219 7.73637 47.2185 7.38515 47.8794 7.27572C48.2978 7.27572 48.5678 7.59968 48.3923 8.3961L47.7309 12.0272C47.2585 14.241 48.2709 14.7269 49.2158 14.7269C50.3528 14.6349 51.4155 14.1252 52.1989 13.2961C52.1979 13.4972 52.2392 13.6962 52.3202 13.8802C52.4012 14.0643 52.5201 14.2292 52.6691 14.3642C52.8181 14.4992 52.9939 14.6013 53.185 14.6638C53.3761 14.7263 53.5783 14.7478 53.7783 14.7269C55.0491 14.6188 56.2358 14.047 57.1124 13.1206C57.186 13.5991 57.4391 14.0315 57.8203 14.3299C58.2015 14.6284 58.6821 14.7703 59.1642 14.7269C59.9655 14.676 60.7472 14.4575 61.4587 14.0854C62.1702 13.7134 62.7957 13.1962 63.2948 12.5672C63.4739 13.2224 63.8743 13.7955 64.4279 14.1891C64.9815 14.5828 65.6542 14.7728 66.3319 14.7269C68.0424 14.6356 69.6541 13.8972 70.8405 12.6616L70.449 14.484C70.7176 14.6462 71.0261 14.7304 71.3399 14.7269C71.7019 14.7514 72.0606 14.6448 72.3505 14.4268C72.6405 14.2087 72.8423 13.8936 72.9192 13.5391L74.0801 8.13963C74.2764 7.85386 74.5352 7.61659 74.837 7.44584C75.1387 7.2751 75.4754 7.17537 75.8214 7.15423C76.4424 7.15423 76.4019 7.66718 76.2669 8.27461L74.917 14.484C75.1856 14.6462 75.4941 14.7304 75.8079 14.7269C76.1721 14.7548 76.5341 14.6498 76.8269 14.4314C77.1197 14.213 77.3236 13.8961 77.4008 13.5391L78.5751 8.03164C78.7705 7.77565 79.0187 7.56477 79.3029 7.41336C79.5871 7.26195 79.9005 7.17357 80.222 7.15423C80.8429 7.15423 80.8159 7.66718 80.6674 8.27461L79.871 12.0407C79.3985 14.2545 80.3974 14.7404 81.3558 14.7404C82.0049 14.6776 82.635 14.4866 83.2096 14.1784C83.7843 13.8702 84.2921 13.451 84.7035 12.9451C84.9447 13.5087 85.3545 13.9839 85.8765 14.3053C86.3986 14.6267 87.0073 14.7787 87.6192 14.7404C89.3296 14.6491 90.9414 13.9107 92.1277 12.6751L91.7362 14.4975C92.0048 14.6597 92.3134 14.7439 92.6272 14.7404C92.9908 14.7654 93.3513 14.6593 93.6435 14.4414C93.9357 14.2235 94.1402 13.9082 94.22 13.5526L95.3674 8.15313C95.787 7.62551 96.3889 7.27399 97.0547 7.16773C97.4731 7.16773 97.7296 7.4917 97.5676 8.28811L96.7712 12.0542C96.2987 14.268 97.6351 14.7539 98.58 14.7539C99.5249 14.7539 101.199 13.863 101.199 12.5402C101.21 12.4601 101.201 12.3786 101.173 12.3026C101.146 12.2267 101.1 12.1586 101.04 12.1041C100.98 12.0497 100.908 12.0106 100.83 11.9902C100.752 11.9697 100.67 11.9685 100.591 11.9867ZM61.7694 2.30825C61.9719 2.30825 62.0934 2.40274 62.0934 2.72671C61.6803 4.98586 60.8764 7.15565 59.7177 9.13853C60.3656 5.14295 61.1485 2.30825 61.7694 2.30825ZM40.1717 6.35782C40.4957 6.35782 40.7252 6.65479 40.7252 7.08674C40.7252 8.32861 39.4698 9.65147 37.634 10.7988C37.715 9.52998 38.2819 6.41181 40.1852 6.41181L40.1717 6.35782ZM67.9113 6.35782C68.2353 6.35782 68.4647 6.65479 68.4647 7.08674C68.4647 8.32861 67.2094 9.65147 65.3736 10.7988C65.4545 9.52998 66.062 6.41181 67.9788 6.41181L67.9113 6.35782ZM89.2255 6.35782C89.5495 6.35782 89.7789 6.65479 89.7789 7.08674C89.7789 8.32861 88.5371 9.65147 86.7013 10.7988C86.7688 9.52998 87.3762 6.41181 89.239 6.41181L89.2255 6.35782Z" fill="#F0D9BF"/>
<path d="M104.02 0.188998C103.676 0.188377 103.344 0.319422 103.093 0.555308C102.842 0.791194 102.691 1.11408 102.67 1.45786C102.67 2.11929 103.116 2.44326 103.116 3.03719C103.084 3.63752 102.823 4.20277 102.387 4.61652C102.379 4.6754 102.384 4.7352 102.4 4.79218C102.417 4.84915 102.445 4.90209 102.483 4.94769C102.521 4.99329 102.568 5.03056 102.621 5.0572C102.674 5.08383 102.732 5.09924 102.792 5.10247C103.471 4.75396 104.056 4.2469 104.498 3.62423C104.94 3.00156 105.225 2.28162 105.329 1.52535C105.326 1.1766 105.188 0.842669 104.944 0.593547C104.7 0.344424 104.369 0.199445 104.02 0.188998Z" fill="#F0D9BF"/>
<path d="M110.918 8.31511C111.62 8.31511 112.268 7.82916 112.268 6.76277C112.268 5.69639 111.498 4.94047 109.892 4.94047C109.483 4.89264 109.069 4.93217 108.677 5.05644C108.285 5.18072 107.924 5.38689 107.618 5.66131C107.311 5.93573 107.067 6.27212 106.901 6.64818C106.734 7.02425 106.649 7.4314 106.652 7.84266C106.652 10.6774 109.77 10.5424 109.77 11.8922C109.772 12.089 109.735 12.2842 109.661 12.4667C109.588 12.6491 109.479 12.8153 109.341 12.9557C109.203 13.0961 109.039 13.2079 108.858 13.2849C108.677 13.3618 108.482 13.4023 108.285 13.4041C108.122 13.4123 107.959 13.3856 107.806 13.3255C107.654 13.2655 107.517 13.1735 107.403 13.0559C107.289 12.9383 107.202 12.7977 107.147 12.6435C107.092 12.4894 107.07 12.3253 107.084 12.1622C107.079 11.7315 107.222 11.3121 107.489 10.9743C107.281 10.7906 107.01 10.6939 106.733 10.7044C106.332 10.7026 105.944 10.8513 105.647 11.1212C105.349 11.391 105.164 11.7624 105.127 12.1622C104.911 13.4311 105.761 14.6594 107.827 14.6594C110.607 14.6594 111.701 13.3096 111.701 11.4603C111.701 9.05753 108.609 9.48948 108.609 7.4917C108.609 6.46581 109.19 5.95286 109.703 5.95286C110.216 5.95286 110.553 6.27683 110.553 6.97875C110.555 7.3462 110.442 7.70503 110.229 8.00464C110.429 8.16371 110.666 8.27041 110.918 8.31511Z" fill="#F0D9BF"/>
<path d="M49.9582 53.3598V54.6152H45.9086V56.613H49.5262V57.7469H45.9086V59.7717H50.0662V60.9595H44.6668V53.3598H49.9582Z" fill="#F0D9BF"/>
<path d="M54.0077 54.3587C53.6977 54.3646 53.3948 54.4531 53.1303 54.6152C53.0174 54.6866 52.9254 54.7867 52.8638 54.9053C52.8021 55.0239 52.773 55.1567 52.7794 55.2901C52.7769 55.423 52.8078 55.5543 52.8691 55.6722C52.9304 55.7901 53.0202 55.8908 53.1303 55.9651C53.6109 56.2127 54.1247 56.39 54.6557 56.4915C55.2899 56.6188 55.8859 56.8914 56.397 57.2879C56.6035 57.476 56.7643 57.7088 56.8672 57.9684C56.9701 58.2281 57.0124 58.5078 56.9909 58.7863C56.9999 59.0913 56.9375 59.3941 56.8086 59.6707C56.6796 59.9472 56.4879 60.1898 56.2485 60.3791C55.6924 60.8155 54.9972 61.036 54.2912 61C53.1274 61.0048 52.0045 60.571 51.1461 59.7852L51.9425 58.8133C52.5863 59.4245 53.4311 59.7796 54.3182 59.8122C54.667 59.8289 55.0121 59.7344 55.3036 59.5422C55.4184 59.4652 55.512 59.3605 55.5756 59.2378C55.6393 59.1152 55.6711 58.9784 55.6681 58.8403C55.6705 58.7074 55.6397 58.5761 55.5784 58.4582C55.5171 58.3403 55.4273 58.2396 55.3171 58.1653C54.9604 57.9476 54.567 57.7967 54.1563 57.7199C53.7268 57.6224 53.3031 57.5007 52.8874 57.3554C52.6114 57.2493 52.3522 57.1038 52.118 56.9235C51.8914 56.7337 51.7133 56.4927 51.5982 56.2204C51.4832 55.9481 51.4347 55.6524 51.4565 55.3576C51.4425 55.0486 51.504 54.7408 51.6357 54.4609C51.7674 54.181 51.9654 53.9375 52.2125 53.7513C52.7631 53.3601 53.4272 53.1608 54.1022 53.1844C54.5881 53.1881 55.0705 53.2655 55.5331 53.4138C55.9804 53.5617 56.3968 53.7905 56.7615 54.0888L56.0865 55.0472C55.82 54.824 55.5129 54.6544 55.1821 54.5477C54.8029 54.424 54.4067 54.3602 54.0077 54.3587Z" fill="#F0D9BF"/>
<path d="M61.378 54.5342V60.9055H60.1091V54.5342H57.8144V53.3598H63.6727V54.5342H61.378Z" fill="#F0D9BF"/>
<path d="M64.3207 60.757C64.2443 60.6843 64.1844 60.5961 64.1448 60.4983C64.1052 60.4005 64.087 60.2955 64.0912 60.1901C64.0923 60.0342 64.1391 59.8821 64.2259 59.7526C64.3126 59.6231 64.4354 59.5219 64.5792 59.4616C64.7229 59.4012 64.8812 59.3843 65.0344 59.4131C65.1876 59.4418 65.3289 59.5148 65.441 59.6232C65.5205 59.6941 65.5835 59.7817 65.6255 59.8797C65.6674 59.9776 65.6874 60.0836 65.684 60.1901C65.6856 60.2964 65.6648 60.4018 65.623 60.4995C65.5811 60.5972 65.5191 60.6849 65.441 60.757C65.3679 60.8338 65.2799 60.8949 65.1825 60.9367C65.085 60.9785 64.9801 61 64.8741 61C64.7681 61 64.6631 60.9785 64.5657 60.9367C64.4682 60.8949 64.3803 60.8338 64.3072 60.757H64.3207Z" fill="#F0D9BF"/>
<path d="M69.6661 53.3598H72.3658V60.9055H71.1509V54.4937H69.6121L69.6661 53.3598Z" fill="#F0D9BF"/>
<path d="M76.3479 59.8526C76.6301 59.8724 76.9127 59.821 77.1698 59.7031C77.4269 59.5852 77.6502 59.4045 77.8192 59.1777C78.1681 58.6311 78.338 57.9894 78.3052 57.3419C78.086 57.5769 77.8251 57.7692 77.5357 57.9088C77.1885 58.0837 76.8041 58.1717 76.4154 58.1653C76.1004 58.1779 75.7864 58.1244 75.4934 58.0082C75.2004 57.8919 74.9351 57.7155 74.7145 57.4904C74.4827 57.2572 74.3019 56.9784 74.1834 56.6717C74.0649 56.365 74.0113 56.037 74.0261 55.7085C74.0109 55.3712 74.0694 55.0346 74.1976 54.7222C74.3259 54.4098 74.5207 54.1291 74.7685 53.8997C75.2815 53.4468 75.9473 53.2056 76.6313 53.2248C77.1663 53.191 77.698 53.3303 78.1477 53.622C78.5974 53.9137 78.9413 54.3424 79.1286 54.8446C79.3966 55.5092 79.5297 56.2204 79.52 56.9369C79.5368 57.5934 79.4549 58.2486 79.2771 58.8807C79.1376 59.3345 78.9029 59.7533 78.5886 60.1091C78.3286 60.3973 78.0096 60.6261 77.6532 60.7799C77.2968 60.9336 76.9114 61.0087 76.5233 61C75.7191 61.0048 74.9376 60.7331 74.3096 60.2306L74.944 59.2857C75.1377 59.4569 75.3621 59.5898 75.6054 59.6771C75.8379 59.787 76.0909 59.8467 76.3479 59.8526ZM76.5773 57.0449C76.9735 57.0567 77.3609 56.9275 77.6707 56.6804C77.8085 56.568 77.9191 56.4258 77.9939 56.2645C78.0687 56.1031 78.1059 55.9269 78.1027 55.749C78.1057 55.5627 78.07 55.3777 77.998 55.2058C77.926 55.0339 77.8192 54.8787 77.6842 54.7501C77.4024 54.477 77.0238 54.3265 76.6313 54.3317C76.2496 54.3219 75.8783 54.4569 75.592 54.7097C75.4545 54.8275 75.3454 54.975 75.273 55.1409C75.2005 55.3069 75.1665 55.4871 75.1735 55.668C75.1689 55.847 75.2 56.0251 75.2648 56.192C75.3297 56.3588 75.4271 56.5111 75.5514 56.6399C75.6843 56.7759 75.8444 56.8822 76.0212 56.952C76.198 57.0218 76.3875 57.0534 76.5773 57.0449Z" fill="#F0D9BF"/>
<path d="M81.7743 53.7918C82.3045 53.4145 82.9391 53.2118 83.5899 53.2118C84.2406 53.2118 84.8752 53.4145 85.4054 53.7918C85.6328 53.9543 85.8178 54.1691 85.9447 54.4182C86.0715 54.6672 86.1366 54.9431 86.1344 55.2226C86.1271 55.5242 86.0502 55.82 85.9097 56.0869C85.7692 56.3539 85.5689 56.5847 85.3244 56.7615C85.6618 56.9593 85.9399 57.244 86.1299 57.5859C86.3198 57.9277 86.4146 58.3143 86.4043 58.7053C86.4091 59.0182 86.3423 59.328 86.2089 59.6111C86.0756 59.8942 85.8792 60.143 85.6349 60.3386C85.0433 60.7588 84.3357 60.9846 83.6101 60.9846C82.8845 60.9846 82.1768 60.7588 81.5853 60.3386C81.341 60.143 81.1447 59.8942 81.0113 59.6111C80.878 59.328 80.8111 59.0182 80.8159 58.7053C80.8056 58.3127 80.9018 57.9247 81.0943 57.5824C81.2868 57.2402 81.5684 56.9564 81.9093 56.7615C81.6649 56.5847 81.4646 56.3539 81.3241 56.0869C81.1836 55.82 81.1067 55.5242 81.0994 55.2226C81.0898 54.9476 81.1461 54.6743 81.2635 54.4254C81.3809 54.1765 81.556 53.9593 81.7743 53.7918ZM82.5302 59.5827C82.8462 59.7861 83.2141 59.8943 83.5899 59.8943C83.9657 59.8943 84.3335 59.7861 84.6495 59.5827C84.7999 59.4814 84.923 59.3447 85.0082 59.1846C85.0933 59.0246 85.1378 58.846 85.1378 58.6648C85.1378 58.4835 85.0933 58.305 85.0082 58.1449C84.923 57.9849 84.7999 57.8482 84.6495 57.7469C84.3302 57.5331 83.9539 57.4202 83.5696 57.4229C83.1847 57.4159 82.8072 57.5291 82.4897 57.7469C82.3354 57.8438 82.2092 57.9796 82.1239 58.1408C82.0386 58.3019 81.9972 58.4826 82.0038 58.6648C82.0027 58.8506 82.0509 59.0334 82.1433 59.1947C82.2358 59.3559 82.3693 59.4897 82.5302 59.5827ZM82.6382 56.1405C82.9074 56.3586 83.2434 56.4776 83.5899 56.4776C83.9363 56.4776 84.2723 56.3586 84.5415 56.1405C84.6671 56.0476 84.7692 55.9266 84.8395 55.7871C84.9099 55.6476 84.9465 55.4936 84.9465 55.3374C84.9465 55.1812 84.9099 55.0271 84.8395 54.8876C84.7692 54.7481 84.6671 54.6271 84.5415 54.5342C84.2683 54.3251 83.9339 54.2118 83.5899 54.2118C83.2459 54.2118 82.9114 54.3251 82.6382 54.5342C82.5126 54.6271 82.4105 54.7481 82.3402 54.8876C82.2699 55.0271 82.2332 55.1812 82.2332 55.3374C82.2332 55.4936 82.2699 55.6476 82.3402 55.7871C82.4105 55.9266 82.5126 56.0476 82.6382 56.1405Z" fill="#F0D9BF"/>
<path d="M92.2762 53.3463V54.5072H89.0905V56.37C89.421 56.1878 89.7931 56.0947 90.1704 56.1C90.837 56.0835 91.4861 56.3143 91.9927 56.748C92.246 56.9567 92.4473 57.2214 92.5808 57.5213C92.7144 57.8211 92.7764 58.1479 92.7621 58.4758C92.7688 58.817 92.701 59.1556 92.5634 59.468C92.4259 59.7804 92.2219 60.0591 91.9657 60.2846C91.4222 60.7626 90.7185 61.0181 89.9949 61C89.5405 61.0195 89.0873 60.939 88.6674 60.764C88.2476 60.5891 87.8713 60.324 87.5652 59.9876L88.2401 59.0562L88.4831 59.2587C88.6679 59.3893 88.8672 59.498 89.077 59.5827C89.3917 59.7208 89.7323 59.7898 90.0759 59.7851C90.4267 59.7871 90.7683 59.6732 91.0478 59.4612C91.1932 59.3517 91.3098 59.2084 91.3874 59.0438C91.465 58.8792 91.5014 58.6981 91.4933 58.5163C91.5041 58.3274 91.4664 58.1389 91.3837 57.9687C91.301 57.7986 91.1761 57.6525 91.0208 57.5444C90.6725 57.3048 90.2552 57.1863 89.8329 57.2069C89.3588 57.2077 88.8932 57.3335 88.4831 57.5714L87.9431 56.9774V53.3463H92.2762Z" fill="#F0D9BF"/>
<path d="M28.563 57.1799L40.8061 58.0978V56.2485L28.563 57.1799Z" fill="#F0D9BF"/>
<path d="M108.852 57.1799L96.6092 58.0978V56.2485L108.852 57.1799Z" fill="#F0D9BF"/>
</g>
<defs>
<clipPath id="clip0_25_483">
<rect width="137.415" height="61" fill="white"/>
</clipPath>
</defs>
</svg>
