<svg width="37" height="23" viewBox="0 0 37 23" fill="none" xmlns="http://www.w3.org/2000/svg">
<g clip-path="url(#clip0_25_531)">
<path d="M35.31 0.0199935C35.16 -0.290007 27.6 4.47999 17.76 10.91L18.42 11.85L19.37 13.22C28.83 6.16999 35.59 0.269993 35.31 0.0199935Z" fill="white"/>
<path d="M10.41 15.67C9.65225 16.1399 8.74306 16.3009 7.87001 16.12C7.36594 15.9702 6.83465 15.9355 6.31539 16.0186C5.79613 16.1017 5.30217 16.3004 4.87001 16.6C4.15076 17.07 3.61977 17.7779 3.37001 18.6C3.1995 19.1436 3.1995 19.7264 3.37001 20.27L3.28001 20.35C3.05991 20.6105 2.80793 20.8423 2.53001 21.04C2.39001 21.14 2.26001 21.24 2.12001 21.32C1.96379 21.4041 1.78699 21.4422 1.61001 21.43C1.50426 21.4207 1.39816 21.4434 1.30544 21.4951C1.21273 21.5468 1.13767 21.6251 1.09001 21.72C1.05915 21.7857 1.04152 21.8568 1.03814 21.9292C1.03475 22.0017 1.04568 22.0741 1.07029 22.1424C1.0949 22.2106 1.1327 22.2734 1.18156 22.327C1.23041 22.3806 1.28935 22.4241 1.35501 22.455C1.42067 22.4859 1.49177 22.5035 1.56424 22.5069C1.63671 22.5103 1.70914 22.4993 1.7774 22.4747C1.84565 22.4501 1.90838 22.4123 1.96202 22.3635C2.01566 22.3146 2.05915 22.2557 2.09001 22.19C2.16557 22.0334 2.28786 21.9041 2.44001 21.82C2.58649 21.7359 2.74049 21.6656 2.90001 21.61C3.22161 21.4811 3.55724 21.3905 3.90001 21.34H4.06001C4.61586 21.8272 5.32157 22.1097 6.06005 22.1406C6.79853 22.1715 7.52538 21.949 8.12001 21.51C8.84472 21.0459 9.37741 20.3357 9.62001 19.51C9.68407 19.3019 9.72433 19.0872 9.74001 18.87C9.88744 17.9835 10.3665 17.1863 11.08 16.64C13.08 15.22 16.08 13.15 16.48 13.31C17.4578 13.6077 18.5022 13.6077 19.48 13.31L17.87 11L10.41 15.67ZM7.65001 20.77C7.17019 21.1454 6.56469 21.3225 5.95822 21.2648C5.35175 21.2071 4.79048 20.9191 4.39001 20.46C4.24321 20.2179 4.14947 19.9475 4.115 19.6665C4.08052 19.3855 4.10608 19.1004 4.19001 18.83C4.36823 18.1891 4.76429 17.6304 5.31001 17.25C5.79075 16.877 6.39568 16.7013 7.00145 16.7589C7.60721 16.8165 8.1682 17.103 8.57001 17.56C8.72229 17.7979 8.81931 18.0669 8.85392 18.3473C8.88853 18.6276 8.85986 18.9122 8.77001 19.18C8.60029 19.8276 8.2026 20.3921 7.65001 20.77Z" fill="white"/>
<path d="M36.02 19.49C35.9091 19.5096 35.8104 19.5719 35.7449 19.6635C35.6795 19.7551 35.6526 19.8687 35.67 19.98C35.682 20.0562 35.682 20.1338 35.67 20.21C35.6427 20.2924 35.6093 20.3726 35.57 20.45C35.4787 20.5977 35.3639 20.7294 35.23 20.84C35.0862 20.9423 34.9228 21.0138 34.75 21.05H34.48H34.2C33.8138 21.0047 33.4383 20.893 33.09 20.72C32.7242 20.5665 32.3863 20.3536 32.09 20.09H32.01C32.1439 19.599 32.1439 19.081 32.01 18.59C31.7642 17.7659 31.2322 17.0567 30.51 16.59C30.0785 16.289 29.5845 16.0895 29.065 16.0064C28.5455 15.9233 28.0139 15.9587 27.51 16.11C26.6337 16.2905 25.7216 16.1295 24.96 15.66L17.58 10.9C7.72999 4.46998 0.179991 -0.300016 0.0199909 0.00998369C-0.140009 0.319984 6.54999 6.15998 15.96 13.21C16.9379 13.5071 17.9821 13.5071 18.96 13.21C19.31 13.12 22.31 15.12 24.31 16.58C25.028 17.1238 25.511 17.9216 25.66 18.81C25.6722 19.0268 25.7091 19.2415 25.77 19.45C26.0126 20.2757 26.5453 20.9859 27.27 21.45C27.8914 21.9176 28.6621 22.1421 29.4374 22.0813C30.2127 22.0206 30.9391 21.6787 31.48 21.12C31.94 21.27 32.35 21.39 32.79 21.49C33.2266 21.5893 33.6723 21.643 34.12 21.65H34.31H34.47C34.8257 21.6184 35.1687 21.5018 35.47 21.31C35.6775 21.184 35.8632 21.0253 36.02 20.84L36.24 20.55C36.3 20.44 36.36 20.35 36.43 20.2V20.1C36.4551 20.0254 36.4551 19.9446 36.43 19.87C36.4202 19.7674 36.373 19.6719 36.2974 19.6019C36.2218 19.5318 36.1231 19.492 36.02 19.49ZM27.7 20.77C27.1375 20.4117 26.7196 19.8663 26.52 19.23C26.4323 18.9618 26.4047 18.6777 26.4393 18.3977C26.4738 18.1177 26.5697 17.8487 26.72 17.61C27.1218 17.153 27.6828 16.8665 28.2886 16.8089C28.8943 16.7513 29.4992 16.9269 29.98 17.3C30.5461 17.6543 30.9652 18.2012 31.16 18.84C31.2521 19.1091 31.282 19.3956 31.2474 19.678C31.2127 19.9603 31.1145 20.2311 30.96 20.47C30.5582 20.9276 29.9962 21.2137 29.3898 21.2695C28.7833 21.3253 28.1786 21.1466 27.7 20.77Z" fill="white"/>
<path d="M16.43 10.84L14.57 9.67999L12.72 8.49999L9.04001 6.11999L5.38001 3.69999L3.56001 2.47999L1.76001 1.23999L3.62001 2.39999L5.47001 3.57999L9.15001 5.95999L12.8 8.37999L14.63 9.59999L16.43 10.84Z" fill="#2B3038"/>
<path d="M18.44 12.12C18.44 12.2727 18.3946 12.422 18.3095 12.5488C18.2244 12.6757 18.1036 12.7743 17.9623 12.8323C17.821 12.8903 17.6657 12.9049 17.5161 12.8744C17.3664 12.8439 17.2293 12.7695 17.122 12.6608C17.0147 12.5522 16.9422 12.414 16.9136 12.264C16.885 12.114 16.9017 11.9589 16.9615 11.8183C17.0213 11.6778 17.1216 11.5583 17.2495 11.4749C17.3774 11.3915 17.5273 11.348 17.68 11.35C17.7806 11.35 17.8803 11.37 17.9732 11.4088C18.066 11.4476 18.1503 11.5045 18.221 11.5761C18.2917 11.6478 18.3474 11.7327 18.385 11.8261C18.4226 11.9195 18.4413 12.0194 18.44 12.12Z" fill="white"/>
<path d="M18.18 12.12C18.1568 12.2355 18.0943 12.3394 18.0032 12.414C17.912 12.4887 17.7978 12.5295 17.68 12.5295C17.5622 12.5295 17.448 12.4887 17.3569 12.414C17.2657 12.3394 17.2032 12.2355 17.18 12.12C17.1651 12.046 17.1669 11.9696 17.1851 11.8963C17.2033 11.8231 17.2376 11.7548 17.2855 11.6963C17.3333 11.6379 17.3935 11.5909 17.4617 11.5586C17.53 11.5262 17.6045 11.5095 17.68 11.5095C17.7555 11.5095 17.8301 11.5262 17.8983 11.5586C17.9665 11.5909 18.0267 11.6379 18.0746 11.6963C18.1224 11.7548 18.1567 11.8231 18.1749 11.8963C18.1931 11.9696 18.1949 12.046 18.18 12.12Z" fill="#2B3038"/>
<path d="M18.93 10.84L20.73 9.59999L22.55 8.37999L26.21 5.95999L29.89 3.57999L31.74 2.39999L33.6 1.23999L31.8 2.47999L29.98 3.69999L26.32 6.11999L22.64 8.49999L20.79 9.67999L18.93 10.84Z" fill="#2B3038"/>
</g>
<defs>
<clipPath id="clip0_25_531">
<rect width="36.51" height="22.45" fill="white"/>
</clipPath>
</defs>
</svg>
