<svg width="57" height="57" viewBox="0 0 57 57" fill="none" xmlns="http://www.w3.org/2000/svg">
<g clip-path="url(#clip0_18_375)">
<path d="M28.5 5.50751C35.9886 5.50751 36.8755 5.53612 39.8332 5.67105C42.5676 5.79585 44.0525 6.25263 45.0409 6.63671C46.2591 7.08631 47.361 7.8032 48.2656 8.73469C49.1971 9.63934 49.914 10.7413 50.3636 11.9594C50.7477 12.9477 51.2046 14.4327 51.3293 17.1671C51.4642 20.1246 51.4928 21.0115 51.4928 28.5003C51.4928 35.9891 51.4642 36.8759 51.3293 39.8335C51.2045 42.568 50.7476 44.0529 50.3636 45.0412C49.897 46.2508 49.1824 47.3493 48.2657 48.266C47.3489 49.1827 46.2505 49.8974 45.0409 50.3639C44.0526 50.748 42.5676 51.2049 39.8332 51.3296C36.8763 51.4645 35.9894 51.4931 28.5 51.4931C21.0106 51.4931 20.124 51.4645 17.1668 51.3296C14.4324 51.2048 12.9475 50.7479 11.9591 50.3639C10.7409 49.9143 9.63901 49.1975 8.73435 48.266C7.80287 47.3613 7.08598 46.2594 6.63637 45.0412C6.25229 44.053 5.7954 42.568 5.67071 39.8335C5.53579 36.8762 5.50717 35.9891 5.50717 28.5003C5.50717 21.0115 5.53579 20.1248 5.67071 17.1671C5.79551 14.4327 6.25229 12.9478 6.63637 11.9594C7.08603 10.7412 7.803 9.63924 8.73458 8.73458C9.63923 7.8031 10.7411 7.0862 11.9593 6.6366C12.9476 6.25252 14.4326 5.79563 17.167 5.67094C20.1244 5.53601 21.0114 5.5074 28.5002 5.5074M28.5002 0.454102C20.8834 0.454102 19.928 0.486387 16.937 0.622875C13.9517 0.759141 11.9131 1.23318 10.1292 1.92653C8.25782 2.63075 6.5626 3.7347 5.16172 5.16139C3.73471 6.56218 2.63045 8.25741 1.92597 10.1288C1.23318 11.9129 0.759141 13.9515 0.623432 16.9368C0.486387 19.9277 0.454102 20.8831 0.454102 28.5C0.454102 36.1168 0.486387 37.0723 0.623432 40.0632C0.759697 43.0485 1.23373 45.0871 1.92708 46.871C2.63131 48.7424 3.73526 50.4376 5.16195 51.8385C6.56282 53.2652 8.25804 54.3691 10.1294 55.0733C11.9134 55.7667 13.9521 56.2407 16.9372 56.377C19.9286 56.5135 20.8837 56.5458 28.5004 56.5458C36.1172 56.5458 37.0727 56.5135 40.0636 56.377C43.0489 56.2407 45.0876 55.7667 46.8715 55.0733C48.7345 54.3528 50.4265 53.251 51.839 51.8385C53.2514 50.426 54.3532 48.7341 55.0738 46.871C55.7671 45.087 56.2412 43.0484 56.3774 40.0632C56.5139 37.0718 56.5462 36.1167 56.5462 28.5C56.5462 20.8833 56.5139 19.9277 56.3774 16.9368C56.2412 13.9515 55.7671 11.9129 55.0738 10.129C54.3696 8.2576 53.2656 6.56237 51.8389 5.1615C50.438 3.73452 48.7427 2.63034 46.8711 1.92597C45.0871 1.23318 43.0485 0.759141 40.0632 0.623432C37.0723 0.486387 36.1168 0.454102 28.5 0.454102H28.5002Z" fill="white"/>
<path d="M28.5 14.0981C25.6516 14.0981 22.8671 14.9428 20.4987 16.5253C18.1303 18.1078 16.2844 20.3571 15.1943 22.9887C14.1043 25.6203 13.8191 28.5161 14.3748 31.3098C14.9305 34.1035 16.3021 36.6697 18.3163 38.6838C20.3304 40.698 22.8966 42.0696 25.6903 42.6253C28.484 43.181 31.3798 42.8958 34.0114 41.8058C36.643 40.7157 38.8923 38.8698 40.4748 36.5014C42.0573 34.133 42.902 31.3485 42.902 28.5001C42.902 24.6805 41.3846 21.0173 38.6837 18.3164C35.9828 15.6155 32.3196 14.0981 28.5 14.0981ZM28.5 37.8487C26.651 37.8486 24.8436 37.3003 23.3062 36.2731C21.7689 35.2458 20.5707 33.7858 19.8631 32.0776C19.1556 30.3693 18.9705 28.4897 19.3312 26.6762C19.6919 24.8628 20.5823 23.197 21.8897 21.8896C23.1971 20.5822 24.8629 19.6919 26.6763 19.3312C28.4898 18.9705 30.3694 19.1556 32.0777 19.8632C33.7859 20.5708 35.2459 21.769 36.2731 23.3063C37.3004 24.8437 37.8487 26.6511 37.8487 28.5001C37.8486 30.9795 36.8637 33.3573 35.1105 35.1105C33.3572 36.8637 30.9794 37.8487 28.5 37.8487Z" fill="white"/>
<path d="M43.471 16.8945C45.3297 16.8945 46.8364 15.3877 46.8364 13.529C46.8364 11.6703 45.3297 10.1636 43.471 10.1636C41.6123 10.1636 40.1055 11.6703 40.1055 13.529C40.1055 15.3877 41.6123 16.8945 43.471 16.8945Z" fill="white"/>
</g>
<defs>
<clipPath id="clip0_18_375">
<rect width="57" height="57" fill="white"/>
</clipPath>
</defs>
</svg>
