<svg width="57" height="57" viewBox="0 0 57 57" fill="none" xmlns="http://www.w3.org/2000/svg">
<g clip-path="url(#clip0_18_352)">
<path d="M39.3019 57C38.3366 56.8396 37.3713 56.7118 36.409 56.5142C33.8501 55.9853 31.4576 54.9869 29.1319 53.84C19.9049 49.2759 12.5269 42.6156 6.75577 34.1278C4.25336 30.4433 2.2544 26.4973 0.929678 22.2423C0.158906 19.7642 -0.295536 17.234 0.221283 14.6222C0.440452 13.4094 1.01531 12.2892 1.87272 11.4042C3.37863 9.86502 4.89046 8.33327 6.44537 6.84461C8.39087 4.98155 10.571 4.97858 12.5046 6.86095C14.7635 9.06275 16.9763 11.3106 19.1876 13.557C20.1752 14.5568 20.8212 15.7216 20.5955 17.1984C20.4321 18.2993 19.8039 19.1402 19.048 19.8994C17.7916 21.1622 16.5233 22.4146 15.264 23.673C14.6105 24.3267 14.5971 24.4976 14.9669 25.3355C16.4016 28.5505 18.598 31.2278 20.9564 33.7846C23.3147 36.3415 25.8899 38.6116 28.8275 40.4584C29.8284 41.0883 30.9066 41.5919 31.9462 42.155C32.4289 42.4165 32.7912 42.2159 33.1343 41.8727C34.4278 40.5683 35.7169 39.2594 37.0282 37.9728C37.4181 37.5776 37.8521 37.2287 38.3218 36.9328C39.8158 36.028 41.4583 36.1707 42.8127 37.2775C43.0845 37.5003 43.3504 37.7336 43.5999 37.9817C45.7028 40.078 47.8176 42.1624 49.8908 44.287C50.417 44.8072 50.8518 45.4124 51.1769 46.0772C51.8288 47.4886 51.5764 48.9 50.562 50.0188C48.918 51.8313 47.179 53.5592 45.4206 55.2633C44.4553 56.1992 43.2137 56.6687 41.8846 56.8871C41.7227 56.9139 41.5653 56.9644 41.4049 57.0045L39.3019 57Z" fill="white"/>
<path d="M57 26.7068L52.6249 27.4957C51.5348 21.4771 48.8497 16.3322 44.4939 12.0965C40.1381 7.86079 34.9194 5.31134 28.8067 4.38724C29.0101 2.9179 29.2106 1.46489 29.4141 0C32.133 0.36446 34.7933 1.08009 37.3282 2.12899C41.9336 4.04386 46.04 6.98729 49.3333 10.734C52.6266 14.4808 55.0194 18.9316 56.3287 23.7458C56.5753 24.6535 56.7817 25.5702 57.0074 26.4839L57 26.7068Z" fill="white"/>
<path d="M28.226 15.7127C28.428 14.2746 28.63 12.8498 28.8304 11.4265C36.4654 12.2852 43.9102 18.5578 45.4251 27.4913L41.1286 28.2341C39.5099 21.3064 35.2387 17.1539 28.226 15.7127Z" fill="white"/>
</g>
<defs>
<clipPath id="clip0_18_352">
<rect width="57" height="57" fill="white"/>
</clipPath>
</defs>
</svg>
