<svg width="64" height="53" viewBox="0 0 64 53" fill="none" xmlns="http://www.w3.org/2000/svg">
<path fill-rule="evenodd" clip-rule="evenodd" d="M4.37996 22.8585C21.5483 15.4025 32.9776 10.4482 38.7167 8.04461C55.0512 1.22631 58.4849 0.0490525 60.6922 0C61.1828 0 62.2619 0.0981057 62.9977 0.686736C63.5863 1.17726 63.7335 1.81494 63.8316 2.30547C63.9297 2.79599 64.0278 3.8261 63.9297 4.61094C63.0468 13.9309 59.2207 36.5441 57.2586 46.9432C56.4247 51.358 54.8059 52.8295 53.2363 52.9767C49.8026 53.271 47.2028 50.7203 43.9163 48.562C38.7167 45.1773 35.8226 43.0681 30.7702 39.7325C24.933 35.9064 28.71 33.7972 32.0456 30.3635C32.9285 29.4806 47.9876 15.7459 48.282 14.5195C48.331 14.3724 48.331 13.7838 47.9876 13.4894C47.6443 13.1951 47.1537 13.2932 46.7613 13.3913C46.2217 13.4894 37.9809 18.9833 21.9408 29.8239C19.5862 31.4427 17.477 32.2275 15.5639 32.1784C13.4547 32.1294 9.43237 31.0012 6.39112 30.0201C2.71218 28.8429 -0.23097 28.2052 0.0142925 26.145C0.16145 25.0658 1.63302 23.9867 4.37996 22.8585Z" fill="white"/>
</svg>
