<svg width="590" height="484" viewBox="0 0 590 484" fill="none" xmlns="http://www.w3.org/2000/svg">
<g clip-path="url(#clip0_16_209)">
<path d="M389.572 445.847L269.885 484.164L405.841 452.635L389.572 445.847Z" fill="#555960"/>
<path d="M343.231 426.962L231.596 461.995L356.542 432.436L343.231 426.962Z" fill="#555960"/>
<path d="M301.053 409.227L296.999 407.475L193.362 439.607L308.009 412.238L301.053 409.227Z" fill="#555960"/>
<path d="M253.123 388.645L251.151 387.769L155.128 417.219L260.189 391.656L253.123 388.645Z" fill="#555960"/>
<path d="M206.563 367.954L116.893 395.323L213.958 371.457L206.563 367.954Z" fill="#555960"/>
<path d="M242.223 327.666C244.852 325.696 248.577 323.068 252.74 320.495L237.348 325.094L242.223 327.666Z" fill="#555960"/>
<path d="M163.892 347.317L78.6046 373.044L170.027 350.328L163.892 347.317Z" fill="#555960"/>
<path d="M207.385 309.219L258.491 296.465C257.998 295.494 257.63 294.464 257.396 293.4C256.879 290.927 256.879 288.373 257.396 285.9L196.813 304.074L207.385 309.219Z" fill="#555960"/>
<path d="M123.741 325.86L40.3704 350.876L128.89 328.98L123.741 325.86Z" fill="#555960"/>
<path d="M513.477 405.067L513.97 405.34L526.295 401.344L511.56 404.027L513.477 405.067Z" fill="#555960"/>
<path d="M476.174 387.331L536.867 368.392L464.835 382.295L476.174 387.331Z" fill="#555960"/>
<path d="M435.584 369.706L547.493 335.603L416.906 361.714L435.584 369.706Z" fill="#555960"/>
<path d="M412.523 346.277L557.956 302.815L408.141 333.906C410.943 337.426 412.485 341.78 412.523 346.277Z" fill="#555960"/>
<path d="M400.363 319.51L568.747 270.245L400.253 305.716L399.432 306.209C399.102 310.664 399.416 315.144 400.363 319.51Z" fill="#555960"/>
<path d="M410.442 285.9C410.416 286.008 410.416 286.121 410.442 286.229L579.319 237.292L406.389 274.351C406.005 275.555 405.567 276.704 405.129 277.909C407.68 279.964 409.535 282.754 410.442 285.9Z" fill="#555960"/>
<path d="M412.688 255.301L590 204.504L415.098 242.547C414.566 246.845 413.761 251.105 412.688 255.301Z" fill="#555960"/>
<path d="M222.667 344.033L215.437 340.365C215.437 340.365 219.052 342.446 222.996 345.183L222.667 344.033Z" fill="#555960"/>
<path d="M226.611 357.17C213.915 354.047 201.522 349.797 189.582 344.471C189.582 344.471 212.643 355.747 228.364 362.973L226.611 357.17Z" fill="#555960"/>
<path d="M7.17574 237.019C7.17574 237.019 8.81906 243.806 11.3936 244.025C19.728 244.267 28.0279 245.2 36.2074 246.817C30.4748 244.657 24.4942 243.223 18.405 242.547C16.2495 242.467 14.1352 241.933 12.2002 240.98C10.2653 240.027 8.55319 238.678 7.17574 237.019Z" fill="#555960"/>
<path d="M271.035 188.192C270.268 186.714 269.337 185.017 268.406 183.156H267.968L269.775 189.068L271.035 188.192Z" fill="#555960"/>
<path d="M413.948 140.405L417.289 139.693L427.806 137.613C434.434 136.354 440.241 135.424 445.061 134.548L454.044 133.07L456.071 132.741H457.002H457.495L460.015 132.358H460.946L462.096 141.116L459.084 132.796H460.015L457.55 133.289L458.645 141.938L455.633 133.727H454.099L455.195 142.211L452.237 134.11L450.648 134.438L451.798 142.813L448.84 134.822L447.197 135.15L448.347 143.416L445.39 135.533H445.061L443.801 135.807L444.951 143.963L441.993 136.19L440.35 136.573L441.555 144.565L438.597 136.902L436.899 137.285L438.049 145.222L435.146 137.668L433.503 137.996L434.653 145.824L431.75 138.38L430.052 138.763L431.257 146.481L428.354 139.146H427.971L426.601 139.474L427.806 147.083L424.903 139.803L423.205 140.186L424.41 147.74L421.507 140.569L419.754 140.952L420.959 148.397L418.111 141.335H417.453L416.303 141.609L417.508 148.999L414.66 141.992L413.181 142.321V142.759L414.331 149.656L412.304 144.839L410.661 148.78V150.367L410.168 149.273L394.338 186.769C398.075 189.138 401.483 191.991 404.471 195.253C419.261 192.133 434.105 189.232 449.224 186.44C462.315 184.086 473.326 181.404 471.682 164.545C473.836 175.049 474.973 185.736 475.078 196.457C452.894 200.344 432.298 204.011 412.523 207.734C413.124 209.123 413.637 210.549 414.057 212.003C424.209 210.106 434.361 208.281 444.513 206.529L467.684 202.424C475.462 201.11 483.185 199.851 490.964 198.428C498.383 197.099 505.703 195.271 512.874 192.954C519.134 190.967 525.158 188.306 530.841 185.017C532.923 183.703 534.895 182.28 536.867 180.747C534.482 182.777 531.936 184.607 529.253 186.221C526.006 188.217 522.598 189.939 519.064 191.367C512.615 194.007 505.966 196.13 499.18 197.716C491.621 199.523 484.007 200.782 476.393 202.15L452.839 206.31C440.076 208.555 427.313 210.963 414.495 213.372C414.939 214.989 415.269 216.635 415.481 218.298C426.437 216.273 437.009 214.193 447.8 212.277L491.621 204.613C506.283 202.645 520.309 197.386 532.649 189.232C534.84 187.644 536.921 185.893 539.003 184.141C534.092 188.784 528.562 192.726 522.57 195.855C515.807 199.309 508.653 201.937 501.262 203.683C493.648 205.599 485.815 206.803 478.091 208.171L456.728 211.948L415.481 219.502C415.481 220.652 415.481 221.801 415.481 222.896L417.508 222.513L422.986 221.528L427.642 220.652L433.12 219.612L437.94 218.736L443.418 217.751L448.895 216.765L454.373 215.78L459.851 214.85L465.328 213.81L470.806 212.879L477.598 211.675L481.98 210.908L493.757 208.828C516.928 204.778 533.361 196.512 542.673 184.141C545.858 179.978 548.161 175.21 549.442 170.128C550.723 165.046 550.954 159.757 550.123 154.582C550.096 154.419 550.096 154.253 550.123 154.09C549.227 149.192 547.011 144.63 543.714 140.898C539.989 136.779 535.434 133.496 530.348 131.264H530.02L526.569 129.786H525.802L522.351 128.691L521.091 128.308L517.64 127.432L515.997 127.103C514.846 127.103 513.641 126.611 512.381 126.447L510.41 126.118L506.575 125.625H504.329L500.166 125.297H497.701H490.526H485.486H482.747L477.27 125.68H474.421L468.122 126.337L465.383 126.72L462.48 127.049L459.631 127.487L456.619 127.924C443.582 130.005 430.052 132.413 415.865 135.205L413.948 140.405ZM466.205 130.442C515.504 123.983 533.963 135.916 540.646 143.361C543.482 146.54 545.378 150.444 546.124 154.637C546.605 157.372 546.497 160.178 545.807 162.868C545.118 165.558 543.863 168.07 542.125 170.238C533.909 181.185 514.244 189.615 485.212 194.651L478.749 195.801C478.104 173.483 473.869 151.415 466.205 130.442Z" fill="#555960"/>
<path d="M500.55 150.039C502.051 149.147 503.745 148.627 505.489 148.522C507.232 148.418 508.976 148.731 510.574 149.437C524.323 148.67 537.524 149.765 543.933 154.911C543.235 151.065 541.491 147.486 538.893 144.565C532.594 137.34 515.285 126.447 469.272 131.975C471.827 139.145 473.967 146.455 475.681 153.871C482.035 152.447 490.909 150.86 500.276 149.765L500.55 150.039ZM501.043 136.956C500.884 136.799 500.757 136.611 500.671 136.404C500.585 136.198 500.541 135.976 500.541 135.752C500.541 135.528 500.585 135.307 500.671 135.1C500.757 134.893 500.884 134.706 501.043 134.548C501.386 134.232 501.836 134.057 502.302 134.057C502.769 134.057 503.219 134.232 503.562 134.548C503.703 134.719 503.808 134.916 503.871 135.128C503.934 135.34 503.953 135.563 503.927 135.783C503.902 136.003 503.832 136.215 503.722 136.408C503.612 136.6 503.465 136.768 503.288 136.902C502.959 137.138 502.562 137.261 502.156 137.251C501.751 137.241 501.36 137.099 501.043 136.847V136.956ZM478.036 138.215C478.036 136.518 481.542 134.712 486.198 134.165C490.854 133.617 494.853 134.438 495.017 136.135C495.181 137.832 491.511 139.584 486.801 140.186C482.09 140.788 478.201 139.858 478.036 138.215Z" fill="#555960"/>
<path d="M77.509 304.238C76.8517 297.286 84.5753 290.663 96.2427 283.054C96.2185 281.634 96.5163 280.226 97.114 278.936C97.7116 277.647 98.5935 276.51 99.6936 275.61C101.163 274.443 102.943 273.732 104.812 273.567C106.682 273.402 108.559 273.788 110.211 274.679C118.318 270.519 127.082 266.961 127.082 266.961C123.741 261.87 120.071 255.411 117.387 250.266C114.648 252.017 112.183 253.714 109.772 255.356C111.854 254.535 113.497 254.316 113.99 255.028C114.483 255.739 112.073 259.571 107.746 262.582C103.418 265.592 99.1459 267.016 98.2147 265.811C97.2835 264.607 98.2147 264.388 98.9815 263.293C89.977 269.627 82.1844 277.525 75.9753 286.612C74.3362 289.336 73.6019 292.508 73.8774 295.674C74.1529 298.84 75.4241 301.838 77.509 304.238ZM94.6541 269.26C94.6541 268.932 94.6541 268.275 95.0924 267.892C95.5306 267.508 96.3522 267.344 96.6261 267.892C96.9 268.439 96.6261 268.822 96.1331 269.26C95.6401 269.698 94.928 269.588 94.6541 269.26Z" fill="#555960"/>
<path d="M118.153 272.544C116.181 273.694 114.264 275.008 112.292 276.267L113.004 277.033C113.596 277.751 114.059 278.566 114.374 279.441C119.851 276.759 125 273.967 130.314 271.997C129.328 270.519 127.63 267.946 127.082 266.961C123.905 268.713 121.276 270.683 118.153 272.544Z" fill="#555960"/>
<path d="M90.272 294.002C92.8465 292.141 95.4758 290.444 98.1599 288.528C97.753 287.982 97.4042 287.395 97.1191 286.776C94.1611 289.075 91.3128 291.429 88.5739 293.947C85.8351 296.465 84.2466 298.326 82.2198 300.571C84.7943 298.436 87.4236 296.137 90.272 294.002Z" fill="#555960"/>
<path d="M99.0363 305.442C114.045 298.052 140.886 286.667 140.886 286.667L138.476 283.273L99.0363 305.442Z" fill="#555960"/>
<path d="M497.975 152.393C485.596 152.885 475.681 154.363 475.681 154.363L477.379 161.753C481.159 161.151 487.677 159.673 495.51 158.414C495.651 156.192 496.517 154.076 497.975 152.393Z" fill="#555960"/>
<path d="M542.673 160.713C537.195 155.239 526.24 153.05 514.463 152.393C514.803 152.757 515.097 153.161 515.339 153.597C515.897 154.452 516.304 155.396 516.544 156.389C525.459 156.017 534.354 157.489 542.673 160.713Z" fill="#555960"/>
<path d="M482.035 192.133C482.035 192.133 516.216 186.659 529.965 177.463C514.371 182.664 498.267 186.187 481.926 187.973L482.035 192.133Z" fill="#555960"/>
<path d="M99.3102 288.145C100.328 289.395 101.694 290.316 103.235 290.791C104.776 291.266 106.424 291.274 107.969 290.814C109.515 290.354 110.89 289.447 111.92 288.207C112.95 286.967 113.59 285.45 113.758 283.847C113.926 282.244 113.615 280.627 112.864 279.201C112.114 277.774 110.957 276.602 109.54 275.832C108.123 275.062 106.51 274.729 104.904 274.874C103.297 275.02 101.77 275.638 100.515 276.65C99.679 277.324 98.9842 278.157 98.4708 279.1C97.9573 280.044 97.6354 281.079 97.5234 282.147C97.4115 283.215 97.5116 284.295 97.8182 285.324C98.1248 286.353 98.6319 287.312 99.3102 288.145ZM102.159 278.62C103.313 277.691 104.79 277.259 106.265 277.418C107.739 277.577 109.089 278.315 110.019 279.469C110.949 280.623 111.382 282.099 111.222 283.572C111.063 285.045 110.325 286.395 109.17 287.324C108.607 287.796 107.954 288.149 107.252 288.364C106.549 288.579 105.81 288.65 105.079 288.573C104.348 288.497 103.64 288.274 102.997 287.918C102.355 287.562 101.79 287.081 101.337 286.503C100.856 285.939 100.495 285.283 100.275 284.575C100.055 283.868 99.9815 283.123 100.058 282.386C100.135 281.649 100.361 280.935 100.722 280.288C101.083 279.64 101.572 279.073 102.159 278.62Z" fill="#555960"/>
<path d="M108.348 286.284C109.065 285.72 109.568 284.928 109.773 284.039C109.615 284.279 109.41 284.484 109.17 284.642C108.451 285.229 107.527 285.507 106.603 285.415C105.679 285.322 104.829 284.867 104.24 284.149C103.666 283.425 103.397 282.505 103.489 281.586C103.581 280.666 104.027 279.819 104.733 279.222L105.5 278.73C104.579 278.795 103.701 279.139 102.98 279.715C102.109 280.441 101.561 281.483 101.459 282.612C101.356 283.742 101.706 284.865 102.432 285.736C103.159 286.607 104.202 287.154 105.332 287.257C106.462 287.36 107.586 287.01 108.458 286.284H108.348Z" fill="#555960"/>
<path d="M498.413 164.216C499.355 165.762 500.736 166.994 502.379 167.756C504.022 168.517 505.855 168.774 507.644 168.493C509.434 168.213 511.1 167.408 512.431 166.18C513.762 164.952 514.699 163.357 515.122 161.597C515.545 159.837 515.435 157.991 514.807 156.293C514.179 154.595 513.061 153.122 511.594 152.06C510.127 150.998 508.378 150.395 506.568 150.327C504.757 150.26 502.968 150.731 501.426 151.681C500.402 152.304 499.511 153.123 498.804 154.091C498.098 155.059 497.59 156.157 497.31 157.322C497.03 158.487 496.983 159.696 497.173 160.879C497.362 162.063 497.784 163.197 498.413 164.216ZM511.779 156.005C512.463 157.111 512.804 158.394 512.759 159.693C512.713 160.991 512.283 162.248 511.523 163.302C510.763 164.357 509.706 165.162 508.488 165.617C507.269 166.071 505.943 166.154 504.678 165.855C503.412 165.556 502.263 164.888 501.377 163.937C500.492 162.986 499.908 161.793 499.701 160.51C499.493 159.227 499.671 157.911 500.213 156.729C500.754 155.547 501.634 154.553 502.741 153.871C504.2 152.952 505.961 152.638 507.649 152.995C509.337 153.353 510.818 154.354 511.779 155.786V156.005Z" fill="#555960"/>
<path d="M502.083 161.753C502.409 162.298 502.841 162.772 503.352 163.147C503.864 163.523 504.446 163.793 505.063 163.94C505.681 164.088 506.321 164.111 506.948 164.008C507.574 163.905 508.174 163.678 508.711 163.34C509.619 162.805 510.315 161.974 510.683 160.987C510.468 161.249 510.209 161.471 509.916 161.643C509.017 162.174 507.945 162.331 506.93 162.082C505.916 161.833 505.039 161.197 504.488 160.31C503.936 159.423 503.755 158.355 503.981 157.336C504.207 156.317 504.824 155.427 505.699 154.856C505.986 154.666 506.3 154.518 506.63 154.418C505.591 154.304 504.545 154.556 503.672 155.13C503.127 155.455 502.653 155.886 502.277 156.398C501.901 156.909 501.631 157.49 501.483 158.107C501.335 158.724 501.312 159.365 501.415 159.991C501.518 160.617 501.745 161.216 502.083 161.753Z" fill="#555960"/>
<path d="M410.661 225.907C410.825 218.154 408.713 210.523 404.586 203.957C400.458 197.39 394.496 192.176 387.435 188.958C397.459 165.366 421.726 107.452 421.726 107.452L415.919 115.608L425.012 94.6433L418.22 102.635L425.012 85.6114L419.535 94.698L422.273 83.4766L417.398 94.1506L422.273 77.2911L416.084 86.5967L420.521 71.872L415.7 80.5754L419.535 65.3033L415.262 73.6236L417.617 63.1685L413.728 71.4888L416.084 60.2673L412.578 65.3033L414.879 54.0819L411.209 59.5558L412.578 49.7028L409.456 56.8736L410.277 48.3343L405.402 57.0378L408.086 43.7363L403.321 49.8123L405.402 37.1129L401.951 41.3825L403.266 33.8285L399.596 40.233L400.746 28.6283C400.746 28.6283 394.995 40.9993 395.268 39.5761L397.35 29.34L393.68 33.3907L395.433 23.5377L389.079 31.858L390.996 25.2893L386.723 28.3546L389.243 17.7354L380.369 32.2411L386.559 15.8195L380.534 25.1251L381.519 16.0384L377.028 22.3881L378.397 15.0532L373.577 18.7206V10.4003L368.537 15.8742V7.9371L364.648 13.411L365.196 4.65283C363.292 8.52781 361.17 12.2925 358.842 15.929C358.842 15.3816 359.828 4.98125 359.828 4.98125L355.555 11.5499V1.69689L351.338 10.1814L349.092 1.53268L345.531 16.5858L342.628 4.59803L339.725 14.6699L338.355 4.32432L336.767 11.2762L333.699 3.33907L331.727 15.2174L328.879 0L325.757 9.25086L324.387 3.33907L321.868 14.6152L320.936 4.21491L317.65 9.68878C317.65 9.68878 317.047 4.21489 317.047 3.33907C316.453 5.62716 315.996 7.94855 315.678 10.2909C315.383 8.62916 315.255 6.94217 315.294 5.25496C314.25 7.4553 313.353 9.72282 312.61 12.0425C312.385 9.52959 312.385 7.00154 312.61 4.48862C311.915 6.43832 311.348 8.4314 310.912 10.4551C310.912 11.0572 310.091 6.62341 310.091 6.1855C309.498 7.3161 308.986 8.48672 308.557 9.68878C307.726 8.0854 306.976 6.4411 306.311 4.76224C306.311 4.37907 305.709 13.7394 305.709 13.7394L302.367 7.55397L301.217 16.0932L297.547 8.53923L296.944 19.487L291.905 6.40442L292.562 24.085L287.687 9.85299L286.756 15.3269L284.784 12.8088L283.962 18.7754L281.169 14.1226L279.525 25.0704C279.525 25.0704 276.239 14.8342 275.855 14.1226C275.472 13.411 276.841 25.0704 276.841 25.0704L272.952 19.5965C272.569 18.9944 271.583 25.3988 271.583 25.3988C270.662 24.5051 269.819 23.5345 269.063 22.4976C268.679 21.7313 269.063 27.9715 269.063 27.9715L266.762 25.2346V31.0369L265.393 29.2853V32.1864L261.942 29.2853L262.873 35.3065L259.203 34.5401L260.573 41.1088L256.902 34.5401L258.655 48.2796L254.109 39.5761L257.067 50.7976L249.343 39.8498L252.63 49.4838C251.095 47.6338 249.668 45.6965 248.357 43.6815C248.519 46.8714 248.848 50.0506 249.343 53.2061C249.343 54.3556 246.276 49.867 246.276 49.867L248.193 56.6546L245.29 53.7535L247.043 60.7052C246.258 59.7363 245.544 58.7119 244.906 57.6399C244.906 57.0378 246.659 64.3727 246.659 64.3727L242.387 61.9095C242.387 61.9095 244.906 71.7625 245.071 72.3099C245.235 72.8573 241.236 69.7919 241.236 69.7919L244.304 79.8638L238.826 74.8826C238.826 74.8826 244.304 85.283 243.975 84.6808C242.62 83.616 241.192 82.6466 239.703 81.7797L245.18 94.5885L237.402 84.8998L242.88 95.5191L240.141 94.2054L242.113 99.6793L238.443 94.2054L242.277 108.273L237.457 100.774C237.457 100.774 241.346 111.393 241.729 112.379C242.113 113.364 235.704 105.372 236.252 108.109C236.799 110.846 266.05 167.008 278.539 190.546C272.027 193.941 266.6 199.098 262.881 205.429C259.162 211.759 257.299 219.007 257.505 226.345C257.505 253.714 264.626 264.662 269.556 280.427C266.582 281.965 264.295 284.564 263.147 287.707C262.787 289.385 262.787 291.12 263.147 292.798C263.859 296.52 267.858 299.968 274.102 302.815C274.129 303.234 274.129 303.655 274.102 304.074C274.585 308.44 274.585 312.845 274.102 317.211C262.898 321.541 252.452 327.62 243.154 335.22L229.021 327.776L215.875 320.824L169.753 296.41L170.684 296.027C181.968 291.374 192.595 287.105 203.221 283.054L208.699 280.919L213.355 279.168L218.833 277.142L223.489 275.445L228.966 273.53L233.403 271.887L238.881 270.026L243.208 268.494L248.303 266.742L252.575 265.264L257.56 263.567H258.381C257.998 262.472 257.669 261.323 257.341 260.228C246.933 263.658 236.562 267.307 226.228 271.176C218.614 273.967 211 276.65 203.44 279.77C195.881 282.89 188.815 285.244 181.53 288.364C176.381 290.389 171.232 292.524 166.083 294.659L164.768 293.947L171.999 290.882C182.406 286.685 192.869 282.561 203.386 278.511C207.658 276.814 211.986 275.226 216.258 273.584C229.788 268.548 243.318 263.786 257.012 259.188C256.519 257.491 256.026 255.739 255.588 253.714C251.425 255.083 247.262 256.396 243.099 257.874C235.54 260.502 227.98 263.348 220.421 265.921C204.792 271.103 189.491 276.613 174.518 282.452C160.276 287.926 146.089 294.002 132.012 300.133L111.196 309.11L100.898 313.489C97.7042 314.999 94.2785 315.961 90.7647 316.335C88.1322 316.329 85.5397 315.691 83.2055 314.474C85.9761 315.545 88.9805 315.866 91.915 315.405C95.5367 314.503 99.046 313.2 102.377 311.518L123.247 302.486C137.325 296.465 151.403 290.499 165.535 284.751C179.667 279.003 195.388 272.708 210.452 267.18C225.515 261.651 239.648 256.615 254.273 251.744C253.945 250.266 253.616 248.788 253.342 247.255C224.803 256.56 194.512 267.727 160.222 281.686C157.318 282.835 148.718 286.557 148.718 286.557C142.312 278.653 136.333 270.412 130.807 261.87C134.257 265.757 143.515 279.113 158.195 272.818C190.513 259.078 221.572 247.145 251.973 236.745C251.973 234.829 251.973 232.859 251.589 230.779L241.51 234.118C226.246 239.373 211.073 244.992 195.991 250.977C182.844 256.451 169.807 261.596 156.771 267.399L155.73 267.837C167.178 262.363 178.681 257.217 190.349 252.346C205.303 246.16 220.312 240.194 235.54 234.72C241.017 232.804 246.495 230.998 251.534 229.246C251.534 228.261 251.534 227.33 251.534 226.29C251.285 219.165 252.793 212.088 255.926 205.682C259.06 199.277 263.721 193.74 269.501 189.56L266.269 184.086L264.462 184.743L266.324 190.874L262.928 185.4L261.12 186.002L262.983 192.133L259.587 186.659L257.834 187.261L259.751 193.392L256.3 187.918L254.547 188.575L256.464 194.651L253.013 189.177L251.26 189.834L253.178 195.91L249.727 190.436L247.919 191.093L249.891 197.169L246.385 191.695L244.633 192.352L246.604 198.428L243.099 192.954L241.948 193.337H241.346L243.373 199.468L239.812 193.994L238.059 194.596L240.086 200.727L236.526 195.253L234.718 195.91L236.799 201.986L233.184 196.512L231.431 197.169L233.568 203.3L229.898 197.826L228.145 198.483L230.281 204.613L226.611 199.14L224.858 199.796L227.049 205.982L223.324 200.508L221.626 201.165L223.817 207.35L220.038 201.877L218.34 202.479L220.586 208.719L216.751 203.245L215.053 203.902L217.299 210.142L213.465 204.668H212.807L211.766 205.051L214.012 211.292L210.123 205.818L209.302 206.146L208.48 206.475L210.78 212.715L206.891 207.241L205.851 207.679H205.248L207.603 213.974L203.605 208.5L201.961 209.157L204.317 215.452L200.373 209.978L199.168 210.416H198.675L201.085 216.656L197.086 211.182L195.443 211.839L197.908 218.134L193.8 212.66L192.211 213.317L194.676 219.612L190.568 214.138L188.925 214.795L191.39 221.145L187.227 215.671C186.911 215.83 186.581 215.958 186.241 216.054L185.583 216.328L188.103 222.732L183.94 217.258L182.351 217.915L184.926 224.265L180.708 218.791L179.065 219.502L181.639 225.907L177.367 220.159L175.669 220.871L178.298 227.33L173.971 221.856L172.382 222.568L175.066 228.972L170.684 223.498L169.205 224.155L171.889 230.614L167.507 224.867L166.083 225.524L168.822 231.983L164.385 226.235L163.015 226.837L165.754 233.351L161.317 227.877L159.838 228.534L162.687 235.048L158.14 229.574L156.661 230.231L159.509 236.745L155.018 231.271L153.648 231.928L156.552 238.442L151.95 232.694L150.526 233.406L153.429 239.92L148.828 234.446L147.349 235.158L150.307 241.672L145.706 236.198L144.172 236.909L147.13 243.423L142.529 237.949L141.159 238.606L144.172 245.12L139.516 239.646L138.201 240.303L141.214 246.817L136.503 241.343L135.134 242.055L138.201 248.569L133.436 243.095L132.012 243.806L135.079 250.375L130.313 244.901L128.78 245.722L131.957 252.236L127.082 246.762L125.384 247.638L128.561 254.261L123.686 248.788L124.562 248.295L125.384 247.802L128.013 246.324L137.818 240.85C142.09 238.551 147.294 235.76 153.32 232.749C159.345 229.739 166.192 226.454 173.806 223.06C177.586 221.363 181.585 219.721 185.748 217.97L198.565 212.496L205.303 209.759L208.699 208.39L212.15 207.022L226.447 201.548C231.267 199.577 236.252 197.826 241.236 196.074L248.796 193.283L252.63 191.859L256.464 190.491L267.42 186.659L265.119 182.225C241.017 190.874 215.108 200.891 186.843 212.769C164.009 220.512 141.767 229.897 120.289 240.85L118.153 242.219L113.88 245.011C113.495 245.216 113.129 245.454 112.785 245.722C110.813 246.981 108.896 248.24 107.033 249.554L103.911 251.689L100.515 254.152L96.3519 257.272L83.9177 250.649C83.9177 250.649 77.5088 247.364 68.5802 243.259C48.4223 234.008 21.5817 223.444 7.99712 225.359C5.92452 225.647 4.01611 226.645 2.5976 228.183C1.17909 229.72 0.338306 231.702 0.218753 233.789C-0.292558 237.024 0.119914 240.338 1.40864 243.349C2.69736 246.361 4.81005 248.948 7.50407 250.813C8.45146 251.296 9.50924 251.523 10.5716 251.47C23.9766 250.731 37.369 253.13 49.6822 258.476C59.3639 262.83 67.6905 269.713 73.7839 278.401L72.9075 279.551C71.9274 280.836 71.0133 282.169 70.1686 283.547C69.6209 284.541 69.1272 285.564 68.6897 286.612C67.4384 289.772 66.9646 293.187 67.3077 296.568C67.6508 299.95 68.801 303.199 70.6616 306.044C71.5714 307.576 72.6163 309.023 73.7839 310.369C75.2135 311.936 76.7709 313.383 78.44 314.693C79.0647 315.786 79.7988 316.813 80.631 317.758C84.0598 321.662 88.7513 324.239 93.887 325.039C99.3646 326.024 104.13 323.889 119.687 316.937H120.289C150.964 334.837 187.336 352.517 216.751 366.202C229.24 371.95 242.277 377.752 255.424 383.445L261.339 386.018L274.541 391.491L289.385 397.787L314.035 408.132L322.689 411.745C372.427 432.491 430.271 456.138 462.863 468.673C474.366 473.107 482.747 476.118 486.527 477.158L487.403 477.431L488.17 476.993C507.068 467.414 516.982 434.845 516.928 415.084V413.989L516.051 413.332C507.716 408.265 498.998 403.854 489.977 400.14C486.253 398.389 482.254 396.582 478.036 394.666C456.125 384.759 427.532 372.771 399.267 360.674C402.66 358.061 405.135 354.438 406.333 350.328C410.606 333.906 391.215 336.424 393.954 303.526C393.927 303.107 393.927 302.687 393.954 302.267C400.363 299.421 404.361 295.972 404.909 292.25C405.269 290.572 405.269 288.837 404.909 287.159C403.761 284.016 401.474 281.418 398.5 279.879C403.54 264.279 410.387 253.167 410.661 225.907ZM372.974 301.556C376.863 300.899 380.753 300.078 384.587 299.147C381.635 300.641 378.555 301.869 375.385 302.815C370.942 304.114 366.423 305.137 361.855 305.88C352.565 307.348 343.143 307.807 333.754 307.249C329.259 307.022 324.79 306.437 320.389 305.497C328.496 305.497 336.822 305.114 344.655 304.621C354.144 304.12 363.598 303.097 372.974 301.556ZM512.436 416.507C511.856 432.915 506.757 448.844 497.701 462.542C494.841 466.669 491.099 470.109 486.746 472.614C481.268 470.917 467.683 465.827 449.717 458.765C395.926 437.582 301.819 398.553 257.067 379.175C247.718 375.125 238.479 371.037 229.35 366.914L218.394 361.987C184.464 346.721 151.319 329.768 119.084 311.19L121.768 309.986C128.889 314.2 137.325 319.072 145.322 323.506C145.322 323.506 134.038 313.106 140.776 310.314C147.513 307.522 178.736 321.864 178.736 321.864C178.736 321.864 160.386 312.12 141.159 301.556L143.186 300.68C171.396 315.897 202.947 331.717 221.462 340.913L237.457 348.795L248.412 335.932C250.275 334.508 252.739 332.757 255.478 330.95C263.859 325.477 275.253 319.182 283.634 319.565C284.213 319.704 284.78 319.887 285.332 320.112C289.495 321.426 297.547 324.437 308.173 328.651L313.651 330.786L325.921 335.713L332.549 338.395L346.736 344.142C368.647 353.12 393.899 363.575 417.946 373.756L433.722 380.489C454.373 389.357 473.38 397.677 487.786 404.3L493.264 406.818C499.837 409.613 506.239 412.793 512.436 416.343V416.507ZM71.5929 293.454C71.6674 292.572 71.7954 291.694 71.9763 290.827C72.3833 289.052 73.0672 287.353 74.003 285.791C76.3036 281.85 86.273 267.673 118.317 247.474C126.174 261.858 135.148 275.603 145.158 288.583C128.999 295.37 117.77 300.406 109.498 304.074C96.7902 309.548 91.8602 312.011 88.0807 312.011C87.5527 312.067 87.0201 312.067 86.4921 312.011C85.424 311.854 84.3768 311.579 83.3699 311.19C80.4118 310.225 77.7774 308.463 75.7559 306.099C74.2294 304.357 73.0732 302.324 72.3576 300.122C71.6419 297.92 71.3818 295.596 71.5929 293.29V293.454ZM9.36654 246.926C7.57223 245.462 6.18952 243.557 5.35407 241.398C4.51862 239.239 4.25906 236.9 4.60091 234.61C4.74733 233.6 5.10171 232.631 5.64168 231.764C27.5524 231.271 63.5406 252.236 85.5609 266.359L84.4106 267.399L80.9597 265.1C77.5635 268.493 63.1025 258.969 63.1025 258.969C68.8722 262.965 73.9431 267.885 78.1113 273.53L77.454 274.296L76.7418 275.062C70.2531 266.156 61.5482 259.099 51.4898 254.59C38.5474 248.932 24.4586 246.382 10.3525 247.145C9.99054 247.13 9.64395 246.995 9.36654 246.762V246.926ZM55.0503 240.577C63.4311 244.19 71.4833 248.185 79.6998 252.455C84.2463 254.809 88.6832 257.382 93.1201 259.954L91.2029 261.542L89.8883 260.775C81.2336 255.302 72.3597 250.703 63.3216 246.215C54.613 241.794 45.6713 237.847 36.5357 234.391C29.2193 231.369 21.5412 229.308 13.6939 228.261C12.0707 228.15 10.4419 228.15 8.81874 228.261C16.2659 228.15 23.6769 229.316 30.7294 231.709C39.0141 234.088 47.1377 236.995 55.0503 240.413V240.577ZM278.594 287.652C281.826 288.418 285.003 289.677 288.125 290.717C291.33 291.661 294.477 292.794 297.547 294.111C294.15 294.081 290.781 293.489 287.577 292.36C284.309 291.379 281.26 289.781 278.594 287.652ZM285.058 297.231C289.002 298.655 293.055 299.804 297.109 301.008C298.752 301.501 300.45 301.994 302.093 302.596C298.398 302.431 294.728 301.899 291.138 301.008C287.024 300.037 283.075 298.47 279.416 296.356C277.824 295.422 276.336 294.321 274.979 293.071C278.211 294.549 281.442 296.027 284.839 297.231H285.058ZM317.376 297.834C315.87 297.655 314.427 297.131 313.158 296.301C314.675 295.975 316.243 295.975 317.759 296.301C319.318 296.47 320.817 296.994 322.142 297.834C320.437 298.291 318.642 298.291 316.938 297.834H317.376ZM217.135 324.874L217.463 326.079L212.862 323.78L187.884 311.354L160.824 297.943L155.894 295.535L158.907 294.275L176.107 303.143L200.154 315.843L217.135 324.874ZM92.9558 321.043C94.3877 321.289 95.8512 321.289 97.2831 321.043C100.874 320.098 104.36 318.796 107.691 317.156L115.086 313.927L116.455 314.748L106.212 319.127C103.012 320.632 99.5901 321.612 96.078 322.028C94.2078 322.03 92.3524 321.696 90.6003 321.043C91.3105 321.118 92.0266 321.118 92.7367 321.043H92.9558ZM337.369 239.592C336.511 239.591 335.673 239.336 334.96 238.859C334.247 238.381 333.692 237.702 333.367 236.909C333.041 236.116 332.958 235.243 333.13 234.403C333.301 233.563 333.719 232.792 334.329 232.19C334.94 231.587 335.716 231.18 336.559 231.019C337.402 230.859 338.274 230.952 339.064 231.288C339.853 231.624 340.526 232.186 340.994 232.905C341.463 233.623 341.708 234.464 341.697 235.322C341.698 235.906 341.579 236.485 341.347 237.022C341.116 237.558 340.776 238.042 340.35 238.442C339.924 238.842 339.42 239.151 338.87 239.349C338.319 239.546 337.734 239.629 337.15 239.592H337.369ZM372.974 295.535C364.766 297.668 356.313 298.717 347.832 298.655C343.988 298.654 340.147 298.435 336.329 297.998C339.561 297.505 342.792 297.231 346.024 296.848C349.256 296.465 354.131 295.972 358.13 295.425C366.354 294.26 374.469 292.429 382.396 289.951C385.956 288.856 389.407 287.378 392.913 286.01C386.84 290.413 380.006 293.661 372.755 295.589L372.974 295.535ZM391.489 230.614C392.475 237.238 383.546 244.025 371.605 245.777C359.664 247.529 349.201 243.587 348.215 236.964C347.229 230.341 356.103 223.553 368.099 221.801C380.095 220.05 390.284 223.991 391.27 230.614H391.489ZM277.663 226.126C277.526 222.934 278.285 219.768 279.854 216.984C279.544 220.021 279.398 223.073 279.416 226.126C279.416 229.136 279.416 232.257 279.416 235.322C278.111 232.432 277.439 229.296 277.444 226.126H277.663ZM293.11 172.974C292.617 171.278 292.179 169.581 291.85 167.829C293.603 171.387 295.137 175.055 296.67 178.777C298.642 183.539 300.669 188.301 302.531 193.118C303.189 194.706 303.791 196.348 304.339 197.99C302.148 194.653 300.207 191.158 298.533 187.535C296.236 182.853 294.349 177.981 292.891 172.974H293.11ZM254.766 79.2617C256.648 81.9827 258.262 84.8791 259.587 87.9104C257.196 85.6441 255.098 83.088 253.342 80.3017C251.423 77.5421 249.876 74.5422 248.741 71.3793C250.898 73.8232 252.823 76.462 254.492 79.2617H254.766ZM249.288 61.6358C251.783 63.7783 253.577 66.6195 254.438 69.7919C253.616 68.4234 252.849 67.0003 251.973 65.6318C251.096 64.2633 250.001 62.9495 249.069 61.6358H249.288ZM260.244 97.7634C261.316 99.411 261.991 101.285 262.216 103.237C260.858 101.905 259.713 100.373 258.82 98.694C257.783 97.0859 256.989 95.3336 256.464 93.4938C257.999 94.632 259.27 96.0885 260.189 97.7634H260.244ZM252.739 90.5926C251.563 89.7296 250.559 88.6525 249.782 87.4178C248.922 86.2911 248.289 85.0084 247.919 83.6408C249.264 84.266 250.417 85.2412 251.255 86.4643C252.093 87.6873 252.587 89.1133 252.685 90.5926H252.739ZM256.902 104.496C258.981 107.639 260.673 111.021 261.942 114.568C262.408 115.782 262.792 117.026 263.092 118.29C261.504 115.991 260.134 113.473 258.71 111.065C256.848 107.835 255.095 104.551 253.232 101.267C252.685 100.117 252.082 99.0224 251.589 97.8729C253.528 99.8851 255.236 102.106 256.683 104.496H256.902ZM260.573 80.5754C259.556 78.9565 258.763 77.2072 258.217 75.3753C259.778 76.4782 261.07 77.9189 261.997 79.5901C263.076 81.234 263.752 83.1096 263.969 85.064C262.62 83.731 261.459 82.221 260.518 80.5754H260.573ZM259.094 67.7666C257.166 64.9677 255.462 62.0208 253.999 58.9537C256.535 61.2381 258.731 63.8741 260.518 66.7812C262.477 69.5839 264.044 72.6411 265.174 75.8679C262.912 73.3381 260.861 70.6288 259.039 67.7666H259.094ZM274.157 117.031C278.156 126.556 281.826 136.19 285.113 145.879C286.263 149.054 287.358 152.283 288.344 155.513C284.948 148.506 281.936 141.335 278.978 134.219C274.924 124.549 271.163 114.787 267.693 104.934C266.543 101.759 265.448 98.5297 264.407 95.3549C268.022 102.361 271.09 109.477 274.102 116.977L274.157 117.031ZM267.639 53.3156C268.926 55.7246 269.972 58.2548 270.761 60.8695C271.661 63.4302 272.321 66.069 272.733 68.7519C269.633 64.1793 267.869 58.8341 267.639 53.3156ZM273.116 56.9831C275.037 60.8959 276.577 64.9834 277.718 69.1898C275.782 65.2835 274.241 61.1944 273.116 56.9831ZM284.346 51.0166C285.179 52.5659 285.893 54.1761 286.482 55.8335C287.151 57.5023 287.683 59.2233 288.07 60.979C286.573 59.8351 285.448 58.2731 284.839 56.4904C284.066 54.7763 283.8 52.8769 284.072 51.0166H284.346ZM288.673 49.4838C290.597 53.9935 292.119 58.6646 293.219 63.4422C291.235 58.8641 289.658 54.1199 288.509 49.2649L288.673 49.4838ZM302.367 71.3793C304.308 76.085 305.811 80.959 306.859 85.9398C304.865 81.1634 303.307 76.2168 302.203 71.1604L302.367 71.3793ZM304.613 93.2748C303.366 91.6144 302.676 89.6029 302.641 87.5273C303.46 89.2924 304.067 91.1481 304.449 93.0559L304.613 93.2748ZM305.763 128.91C309.196 142.23 312.391 155.586 315.349 168.978C316.335 173.358 317.266 177.737 318.088 182.171C315.13 172.372 312.61 162.465 309.926 152.557C306.275 139.018 303.024 125.443 300.176 111.831C299.19 107.452 298.259 103.073 297.437 98.6392C300.505 108.437 302.97 118.564 305.599 128.691L305.763 128.91ZM325.866 139.474C325.483 132.741 325.1 126.009 324.826 119.276C324.826 113.473 324.497 107.726 324.497 101.978V101.431C325.209 106.576 325.702 111.777 326.25 116.922C326.907 123.491 327.455 130.005 328.003 136.573C328.66 143.963 329.208 151.353 329.701 158.742C330.194 166.132 330.632 172.208 330.961 178.941C331.234 184.415 331.563 190.436 331.673 196.129V196.676C330.851 191.531 330.248 186.331 329.591 181.13C328.824 174.617 328.167 168.103 327.564 161.534C326.962 154.965 326.195 146.59 325.702 139.255L325.866 139.474ZM327.126 65.5223C326.403 63.7835 325.995 61.93 325.921 60.0484C325.774 58.2057 325.96 56.3517 326.469 54.5745C327.182 56.3167 327.589 58.1683 327.674 60.0484C327.751 61.8284 327.51 63.6078 326.962 65.3033L327.126 65.5223ZM327.126 92.8917C326.414 91.1495 326.006 89.2979 325.921 87.4178C325.774 85.5751 325.96 83.721 326.469 81.9439C327.182 83.686 327.589 85.5376 327.674 87.4178C327.723 89.1425 327.482 90.8632 326.962 92.5084L327.126 92.8917ZM330.796 78.1122C330.796 76.1416 330.796 74.2257 330.796 72.2551C331.494 76.115 331.306 80.0827 330.248 83.8598C330.413 81.5608 330.577 79.6449 330.632 77.729L330.796 78.1122ZM338.739 24.1398C338.791 26.0031 338.494 27.8596 337.863 29.6137C337.231 27.8596 336.934 26.0031 336.986 24.1398C336.966 22.2787 337.262 20.4277 337.863 18.6659C338.48 20.294 338.814 22.0158 338.848 23.7566L338.739 24.1398ZM364.265 59.72C363.1 64.2976 361.542 68.7663 359.609 73.0763C360.647 68.359 362.151 63.7565 364.101 59.3368L364.265 59.72ZM359.609 59.72C359.797 55.3138 361.412 51.0878 364.21 47.6775C363.967 49.8261 363.414 51.9281 362.567 53.9177C361.793 55.933 360.743 57.8306 359.444 59.5558L359.609 59.72ZM364.703 92.5632H365.032C365.032 92.5632 365.032 93.3843 365.032 93.5485C365.032 94.5885 365.032 95.6833 365.032 96.7234C365.051 98.9026 364.905 101.08 364.593 103.237C364.239 106.669 363.429 110.037 362.183 113.254C362.246 109.813 362.502 106.377 362.95 102.964C362.95 100.774 363.388 98.5845 363.717 96.3949C363.717 95.4096 363.991 94.3696 364.155 93.3843C364.155 93.3843 364.155 92.6727 364.155 92.5632H364.703ZM385.463 150.477C383.382 156.608 381.246 162.684 378.945 168.705C378.178 170.73 377.411 172.755 376.535 174.781C377.499 169.933 378.742 165.144 380.26 160.439C382.174 154.267 384.461 148.217 387.107 142.321C387.983 140.35 388.914 138.325 389.955 136.409C388.476 140.788 386.888 145.441 385.299 150.094L385.463 150.477ZM335.233 170.785C335.233 169.143 335.233 167.501 335.507 165.858C336.15 169.482 336.607 173.136 336.876 176.806C337.269 181.649 337.415 186.509 337.315 191.367C337.315 193.009 337.315 194.651 337.041 196.293C336.394 192.67 335.937 189.016 335.671 185.345C335.191 180.379 334.99 175.39 335.069 170.402L335.233 170.785ZM345.093 177.463C345.696 168.814 346.572 160.166 347.777 151.572C348.325 147.959 348.818 144.291 349.585 140.624C349.902 147.923 349.774 155.235 349.201 162.519C348.599 171.168 347.722 179.762 346.353 188.301C345.805 191.914 345.203 195.582 344.326 199.249C344.125 191.854 344.326 184.453 344.929 177.08L345.093 177.463ZM368.702 79.6449C367.935 81.8572 367.02 84.0151 365.963 86.104C365.732 83.6141 366.147 81.1068 367.168 78.8238C367.965 76.6251 369.258 74.6397 370.948 73.0215C370.263 75.1454 369.458 77.2289 368.537 79.2617L368.702 79.6449ZM371.167 88.1294C371.419 88.6206 371.565 89.1592 371.596 89.7104C371.627 90.2616 371.541 90.8131 371.345 91.3292C371.148 91.8452 370.846 92.3143 370.457 92.7061C370.067 93.0978 369.6 93.4035 369.085 93.6033C368.901 91.4217 369.59 89.2561 371.002 87.582L371.167 88.1294ZM365.689 131.373C367.332 123.491 369.14 115.663 371.167 107.835C371.769 105.208 372.427 102.361 373.139 100.008C372.591 106.138 371.55 112.16 370.4 118.181C368.962 126.004 367.134 133.75 364.922 141.39C364.155 143.963 363.388 146.536 362.512 149.054C363.334 142.759 364.593 136.847 365.799 130.99L365.689 131.373ZM357.801 151.298C356.267 162.246 354.679 172.591 352.817 183.211C352.05 187.644 351.283 192.078 350.297 196.457C350.578 187.484 351.328 178.531 352.543 169.635C353.857 158.907 355.683 148.251 358.02 137.668C359.006 133.289 359.992 128.855 361.197 124.531C360.759 133.125 359.171 142.321 357.911 150.915L357.801 151.298ZM355.281 95.6833C355.229 96.1196 355.229 96.5607 355.281 96.9971C355.281 98.1466 355.281 99.2961 355.281 100.446C355.281 102.799 355.281 105.208 355.281 107.562C354.945 112.64 354.25 117.689 353.2 122.67C352.788 124.783 352.239 126.867 351.557 128.91C351.146 124.632 351.146 120.324 351.557 116.046C351.92 110.952 352.615 105.887 353.638 100.883C353.912 99.6245 354.186 98.3655 354.515 97.1613C354.628 96.6595 354.774 96.1658 354.953 95.6833C354.953 95.6833 355.227 95.1907 355.446 95.3002C355.446 95.3002 355.281 95.738 355.281 95.6833ZM348.051 90.2094C349.166 85.6348 350.726 81.1799 352.707 76.908C351.557 81.4474 350.017 85.8794 348.106 90.1547L348.051 90.2094ZM351.502 67.5476C350.529 70.548 349.301 73.4598 347.832 76.251C348.439 69.9193 350.541 63.8221 353.967 58.4609C353.43 61.5365 352.624 64.5588 351.557 67.4929L351.502 67.5476ZM367.935 170.073C369.428 163.864 371.425 157.786 373.906 151.9C374.672 149.984 375.494 148.123 376.425 146.426C375.275 151.079 373.906 155.622 372.536 160.22C370.783 166.242 369.03 172.208 367.058 178.229C366.456 180.2 365.853 182.171 365.196 184.086C365.67 179.339 366.513 174.636 367.716 170.019L367.935 170.073ZM368.921 190.6C368.361 193.457 367.402 196.221 366.072 198.811C366.143 195.856 366.547 192.918 367.278 190.053C367.807 187.23 368.652 184.476 369.797 181.842C369.842 184.78 369.473 187.71 368.702 190.546L368.921 190.6ZM366.785 155.732C365.141 162.574 363.498 169.362 361.8 176.204C360.321 182.006 358.897 187.809 357.308 193.556V194.049C357.911 188.575 358.787 183.375 359.664 178.01C360.814 171.278 362.129 164.599 363.553 157.921C365.141 150.422 366.894 142.923 369.03 135.533C371.167 128.143 372.7 121.903 374.782 115.17C376.48 109.423 378.342 103.73 380.26 98.1465V97.5992C379.219 103.073 378.014 108.109 376.809 113.364C375.33 120.042 373.741 126.72 372.153 133.398C370.564 140.076 368.318 148.233 366.565 155.677L366.785 155.732ZM373.632 80.028C374.621 76.6067 376.018 73.317 377.795 70.2298C376.712 73.6347 375.242 76.9039 373.413 79.9733L373.632 80.028ZM379.109 88.1841C379.829 86.2892 380.866 84.5307 382.177 82.984C382.05 85.0873 381.53 87.1482 380.643 89.06C379.948 91.0382 378.93 92.8879 377.63 94.5338C377.586 92.3537 377.939 90.1837 378.671 88.1294L379.109 88.1841ZM390.065 128.362C389.298 129.95 388.531 131.592 387.655 133.125C388.662 129.245 389.888 125.426 391.325 121.684C393.077 116.812 395.104 111.996 397.35 107.288C398.117 105.701 398.884 104.113 399.76 102.526C398.76 106.407 397.535 110.227 396.09 113.966C394.25 118.857 392.148 123.644 389.791 128.308L390.065 128.362ZM393.899 98.8035C394.447 96.9971 395.049 95.1907 395.542 93.3296C396.035 91.4685 396.474 89.6073 396.857 87.8557C396.72 91.6328 395.606 95.3101 393.625 98.5297L393.899 98.8035ZM392.365 76.908C391.844 78.3787 391.406 79.8772 391.051 81.3965C390.981 79.7861 391.241 78.1785 391.816 76.6724C392.39 75.1663 393.267 73.7935 394.392 72.6383C393.525 73.9103 392.756 75.2461 392.091 76.6342L392.365 76.908ZM392.639 84.9546C391.986 89.0146 390.201 92.8086 387.49 95.9023C387.731 93.8215 388.343 91.8006 389.298 89.9357C390.023 88.0935 391.061 86.39 392.365 84.8998L392.639 84.9546ZM387.928 80.7396L386.449 84.2429C386.011 85.3924 385.628 86.5967 385.19 87.8009C385.143 85.2122 386.017 82.6911 387.655 80.6849L387.928 80.7396ZM386.449 74.7184C386.466 72.7038 387.205 70.7619 388.531 69.2445C388.759 69.7517 388.879 70.3011 388.882 70.8572C388.885 71.4133 388.773 71.964 388.551 72.474C388.329 72.9841 388.004 73.4423 387.594 73.8194C387.185 74.1964 386.702 74.4839 386.176 74.6636L386.449 74.7184ZM385.792 100.555C385.489 104.807 384.885 109.033 383.984 113.2C382.929 118.571 381.482 123.858 379.657 129.019C379.055 130.771 378.397 132.577 377.63 134.493C378.288 130.388 379.219 126.337 380.15 122.286C381.41 116.812 382.779 111.339 384.258 105.865C384.423 104.004 384.916 102.197 385.518 100.5L385.792 100.555ZM381.629 71.7078C381.136 71.7078 381.027 72.4193 380.972 72.8573L380.314 76.251C379.887 78.1936 379.357 80.1122 378.726 81.9986C378.957 79.9913 379.304 77.9991 379.767 76.0321C380.041 74.8826 380.26 73.7331 380.588 72.6383C380.917 71.5436 380.917 71.7078 381.41 71.5436C381.511 71.4908 381.624 71.4632 381.739 71.4632C381.853 71.4632 381.966 71.4908 382.067 71.5436V71.9267C382.067 71.9267 381.574 71.5983 381.355 71.653L381.629 71.7078ZM375.275 72.693C376.264 69.2718 377.662 65.982 379.438 62.8948C378.338 66.3021 376.849 69.5715 375.001 72.6383L375.275 72.693ZM378.726 29.6137C377.813 32.4964 376.621 35.283 375.165 37.9339C373.884 40.6549 372.363 43.2563 370.619 45.7069C371.16 42.7004 372.177 39.7993 373.632 37.1129C374.874 34.3802 376.497 31.837 378.452 29.5589L378.726 29.6137ZM374.618 52.9324C373.617 56.0015 372.372 58.9852 370.893 61.8548C369.6 64.8245 368.061 67.6809 366.292 70.394C367.566 63.9705 370.428 57.9676 374.618 52.9324ZM364.977 40.8351C365.76 37.0668 366.954 33.3957 368.537 29.8874C367.671 33.6502 366.384 37.3039 364.703 40.7803L364.977 40.8351ZM360.759 102.526C360.43 106.357 359.883 110.189 359.28 113.966C358.513 119.44 357.692 124.312 356.76 129.457C356.505 131.099 356.176 132.741 355.774 134.384C355.627 130.452 355.811 126.515 356.322 122.615C356.853 117.527 357.806 112.492 359.171 107.562C359.445 105.865 359.937 104.004 360.759 102.526ZM353.857 90.2094C355.013 85.6292 356.571 81.1597 358.513 76.8532C357.328 81.4534 355.695 85.9268 353.638 90.2094H353.857ZM354.953 54.684C355.363 51.8753 356.194 49.1443 357.418 46.5826C356.951 49.4238 356.045 52.1753 354.734 54.7387L354.953 54.684ZM348.763 57.0378C347.832 59.5557 346.955 62.1285 345.805 64.5917C345.657 61.8055 346.124 59.0208 347.175 56.4356C348.056 53.81 349.516 51.4156 351.447 49.4291C350.612 52.0138 349.643 54.5534 348.544 57.0378H348.763ZM346.298 47.7322C346.253 45.1631 346.661 42.606 347.503 40.1782C347.443 42.7569 346.962 45.3084 346.079 47.7322H346.298ZM344.929 87.1441C344.939 89.6927 344.532 92.2259 343.724 94.6433C343.614 92.1053 343.948 89.5677 344.71 87.1441H344.929ZM341.094 65.7412C341.094 63.9348 341.752 62.1832 342.026 60.2673C342.299 58.3515 342.519 56.8736 342.792 55.122C343.041 58.7479 342.382 62.3786 340.875 65.6865L341.094 65.7412ZM341.094 86.5967C341.094 84.8451 341.752 83.0387 342.026 81.1229C342.299 79.207 342.519 77.6743 342.792 75.9774C343.074 79.6228 342.414 83.2794 340.875 86.5967H341.094ZM338.903 44.831C339.36 40.6782 340.26 36.586 341.587 32.6243C341.086 36.7747 340.169 40.8642 338.848 44.831H338.903ZM335.288 107.945C335.478 105.32 335.807 102.707 336.274 100.117C337.04 105.303 337.48 110.532 337.589 115.772C337.863 121.958 337.917 128.198 337.589 134.438C337.589 137.011 337.589 139.912 337.041 142.266C335.875 137.141 335.196 131.918 335.014 126.665C334.567 120.433 334.586 114.175 335.069 107.945H335.288ZM334.85 95.9023C334.886 94.0499 335.162 92.21 335.671 90.4284C336.052 88.7655 336.66 87.163 337.479 85.6661C337.974 87.4573 337.974 89.3488 337.479 91.14C336.979 92.9559 335.994 94.6019 334.631 95.9023H334.85ZM337.26 59.9389C337.049 57.4856 337.196 55.0147 337.698 52.6039C338.011 50.1651 338.734 47.7965 339.834 45.5974C340.046 48.0325 339.898 50.4854 339.396 52.8776C339.031 55.4379 338.234 57.9178 337.041 60.2126L337.26 59.9389ZM337.589 67.876C337.827 70.3289 337.679 72.8039 337.15 75.2111C336.818 77.639 336.116 80.0018 335.069 82.2176C334.841 79.767 334.97 77.2962 335.452 74.8826C335.767 72.4703 336.412 70.1127 337.369 67.876H337.589ZM331.782 68.5876C331.782 66.6718 331.782 64.7559 332.111 62.7853V56.9831C332.808 60.8429 332.621 64.8105 331.563 68.5876H331.782ZM343.778 120.425C344.271 115.991 344.874 111.558 345.696 107.178C345.969 115.991 345.696 124.859 345.148 133.672C344.71 144.291 344.052 154.856 343.066 165.475C342.683 169.909 342.299 174.343 341.642 178.777C341.176 169.933 341.176 161.072 341.642 152.228C341.752 141.664 342.464 131.045 343.778 120.425ZM324.059 186.112C324.059 187.863 324.059 189.56 324.059 191.257C323.029 187.654 322.188 184 321.539 180.309C320.609 175.313 319.951 170.269 319.567 165.201C319.567 163.45 319.293 161.753 319.293 159.728C320.315 163.333 321.156 166.986 321.813 170.675C322.846 175.775 323.596 180.929 324.059 186.112ZM317.869 104.715C317.431 104.277 317.047 103.785 316.664 103.347C318.088 111.558 319.293 119.768 320.334 128.198C320.334 130.333 320.827 132.468 321.046 134.603C319.348 125.187 317.979 115.663 316.828 106.138C316.828 105.044 316.828 103.894 316.445 102.799C316.938 103.183 317.376 104.004 317.869 104.496V104.715ZM318.143 82.2176C318.876 85.5559 319.388 88.9387 319.677 92.3442C320.132 95.7377 320.37 99.1567 320.389 102.58C319.056 99.388 318.225 96.0092 317.924 92.5632C317.493 89.0858 317.567 85.5645 318.143 82.1081V82.2176ZM317.157 54.8482C316.166 52.4519 315.52 49.9269 315.24 47.349C316.729 49.4509 317.91 51.7551 318.745 54.1913C319.76 56.5799 320.406 59.1084 320.663 61.6906C319.098 59.5611 317.844 57.2205 316.938 54.7387L317.157 54.8482ZM316.445 72.8573C315.328 71.7294 314.496 70.3512 314.02 68.8373C313.543 67.3234 313.436 65.7177 313.706 64.1538C313.842 65.69 314.117 67.2106 314.528 68.6971C315.033 70.0716 315.675 71.392 316.445 72.6383V72.8573ZM314.035 93.7675C312.403 90.7011 311.275 87.3929 310.693 83.9692C309.964 80.5906 309.725 77.1251 309.981 73.6784C310.995 76.9486 311.818 80.275 312.446 83.6408C313.158 86.9115 313.689 90.2191 314.035 93.5485V93.7675ZM313.049 120.206C314.911 128.417 316.609 136.628 317.979 145.003C318.417 147.795 318.855 150.477 319.184 153.378C317.376 147.302 315.897 141.171 314.473 134.986C312.61 126.738 310.967 118.418 309.543 110.025C309.105 107.288 308.666 104.551 308.338 101.759C310.145 107.616 311.46 113.802 313.049 119.987V120.206ZM281.442 64.9749C280.705 62.6361 280.318 60.2014 280.292 57.7494C281.537 59.8116 282.478 62.0423 283.086 64.3727C283.823 66.7491 284.21 69.22 284.236 71.7078C282.961 69.5438 282.019 67.2002 281.442 64.7559V64.9749ZM284.784 83.3671C285.521 85.7435 285.908 88.2144 285.934 90.7021C284.679 88.6062 283.738 86.3378 283.141 83.9692C282.395 81.6526 282.025 79.2318 282.045 76.7985C283.24 78.7819 284.162 80.9179 284.784 83.1482V83.3671ZM283.36 115.17C285.149 122.25 286.683 129.366 287.961 136.518C288.399 138.872 288.783 141.281 289.111 143.689C287.358 138.215 285.989 133.179 284.62 127.87C282.83 120.754 281.296 113.583 280.018 106.357C279.58 103.949 279.197 101.54 278.868 99.1866C280.621 104.004 282.045 109.477 283.36 114.951V115.17ZM288.454 90.2094C290.809 98.6939 292.836 107.288 294.644 115.882L295.794 121.739C293.439 113.254 291.412 104.715 289.604 96.0665L288.454 90.2094ZM288.454 67.1097C289.262 68.2793 289.873 69.5739 290.262 70.9415C290.756 72.3323 291.033 73.7908 291.083 75.2658C289.885 74.2719 289.002 72.95 288.545 71.4622C288.088 69.9745 288.075 68.3856 288.509 66.8908L288.454 67.1097ZM294.37 77.1269C295.791 79.4445 296.879 81.9506 297.602 84.5713C298.499 87.1513 299.052 89.8385 299.245 92.5632C297.838 90.2309 296.734 87.7294 295.958 85.1188C295.078 82.4637 294.562 79.7016 294.425 76.908L294.37 77.1269ZM297.054 74.6636C297.912 76.4992 298.556 78.4279 298.971 80.4112C297.722 78.6753 297.069 76.5823 297.109 74.4447L297.054 74.6636ZM299.245 66.7265C296.516 62.0165 294.852 56.7663 294.37 51.345C295.801 53.6574 296.89 56.1649 297.602 58.7894C298.505 61.2764 299.075 63.8714 299.3 66.5075L299.245 66.7265ZM298.314 37.4961C299.208 41.689 299.667 45.963 299.683 50.2501C298.792 45.9836 298.351 41.6355 298.368 37.2771L298.314 37.4961ZM278.813 92.9464C277.673 91.9359 276.846 90.6212 276.429 89.1569C276.012 87.6926 276.022 86.1397 276.458 84.6808C277.204 85.8832 277.759 87.1944 278.101 88.5673C278.58 89.9035 278.839 91.3084 278.868 92.7274L278.813 92.9464ZM270.542 81.0134C271.035 83.0387 271.528 85.1187 272.076 87.1441C272.623 89.1694 273.336 91.1948 273.993 93.1654C271.884 89.3736 270.719 85.1305 270.597 80.7944L270.542 81.0134ZM273.39 103.839C271.749 101.627 270.507 99.1444 269.72 96.5044C268.762 93.9115 268.28 91.1671 268.296 88.403C269.566 90.8135 270.593 93.3439 271.364 95.957C272.318 98.4335 273.016 101.001 273.445 103.62L273.39 103.839ZM271.144 75.7584C268.896 73.5184 267.207 70.7805 266.215 67.7666C268.022 70.1204 269.665 72.8026 271.199 75.5395L271.144 75.7584ZM279.909 151.462L282.209 156.389C278.265 149.437 274.65 142.321 271.254 135.15C270.432 133.563 269.665 131.92 268.899 130.278C273.116 136.847 276.513 144.072 279.963 151.243L279.909 151.462ZM295.63 137.559C294.918 134.274 294.205 130.935 293.603 127.541C296.068 135.314 298.204 143.142 300.286 150.969C303.134 161.662 305.891 172.336 308.557 182.992C309.707 187.425 310.803 191.859 311.898 196.293C308.666 187.59 305.928 178.722 303.463 169.8C300.614 158.998 298.022 148.178 295.684 137.339L295.63 137.559ZM377.795 204.285C374.026 206.425 369.993 208.063 365.799 209.157C357.085 211.35 348.1 212.272 339.122 211.894C335.07 211.794 331.027 211.447 327.017 210.854C330.248 210.525 333.535 210.361 336.822 210.087C341.204 209.814 345.586 209.43 349.913 208.992C358.635 208.237 367.228 206.398 375.494 203.519C377.666 202.695 379.788 201.744 381.848 200.672L386.121 198.264C383.673 200.506 380.971 202.454 378.069 204.066L377.795 204.285ZM397.952 150.477C395.104 157.648 392.146 164.764 389.133 171.88C387.928 174.836 386.669 177.737 385.409 180.638C387.654 174.671 390.01 168.705 392.365 162.793C395.268 155.622 398.172 148.452 401.184 141.335L404.909 132.632C402.937 138.38 400.637 144.346 398.226 150.258L397.952 150.477ZM394.556 145.824C389.846 157.593 385.08 169.307 380.15 181.021C378.562 184.853 376.918 188.739 375.22 192.571C378.069 183.43 381.41 174.452 384.806 165.53C389.407 153.542 394.392 141.664 399.76 130.005C401.513 126.228 403.266 122.396 405.238 118.674C402.061 127.541 398.446 136.847 394.83 145.605L394.556 145.824ZM407.977 112.981C407.75 109.006 409.042 105.093 411.592 102.033C409.786 105.456 408.564 109.156 407.977 112.981ZM414.057 108.219C413.34 111.016 412.48 113.774 411.482 116.484C411.679 113.44 412.66 110.498 414.331 107.945L414.057 108.219ZM412.633 91.14C412.559 92.7601 412.048 94.3302 411.154 95.6833C410.361 97.0151 409.226 98.1112 407.867 98.8582C408.255 97.3351 408.904 95.8907 409.784 94.5885C410.588 93.1668 411.646 91.9051 412.907 90.8663L412.633 91.14ZM405.621 88.841C405.911 87.0236 406.543 85.2776 407.484 83.6955C408.345 82.0768 409.496 80.6297 410.88 79.4259C410.59 81.2432 409.958 82.9892 409.017 84.5713C408.223 86.0787 407.166 87.4319 405.895 88.5673L405.621 88.841ZM411.099 69.9561C410.476 72.3038 409.417 74.5135 407.977 76.47C408.721 74.0235 409.889 71.7262 411.428 69.6824L411.099 69.9561ZM405.621 73.5141C404.84 75.5217 403.709 77.375 402.28 78.988C402.528 76.9156 403.121 74.8991 404.033 73.0215C404.844 71.0987 405.994 69.3373 407.429 67.8213C407.281 69.6859 406.837 71.5152 406.114 73.2405L405.621 73.5141ZM403.102 64.4275C403.43 63.3328 403.814 62.1832 404.197 61.0885C404.383 60.5891 404.73 60.1656 405.183 59.8842C405.512 59.8842 405.895 59.8842 406.005 60.1579C406.114 60.4316 405.512 59.8842 405.238 60.1579C404.857 60.479 404.605 60.9256 404.526 61.4169C404.252 62.5664 403.923 63.7706 403.54 64.9202C402.952 66.8907 402.257 68.8277 401.458 70.7225C402.025 68.4884 402.739 66.2941 403.595 64.1538L403.102 64.4275ZM402.006 86.323C402.887 84.1886 404.108 82.2106 405.621 80.4659C405.296 82.7485 404.612 84.9653 403.595 87.0346C402.681 89.1646 401.443 91.1404 399.924 92.8917C400.389 90.4127 401.259 88.027 402.499 85.8303L402.006 86.323ZM398.774 78.8238C398.055 80.7187 397.017 82.4773 395.707 84.024C395.86 81.9249 396.379 79.8686 397.24 77.948C397.931 75.9567 398.97 74.1034 400.308 72.4741C400.211 74.4769 399.805 76.4526 399.103 78.3311L398.774 78.8238ZM399.815 60.3768C400.063 62.0525 399.894 63.7635 399.322 65.3581C398.843 66.9812 397.978 68.4647 396.802 69.6824C396.817 67.985 397.113 66.3019 397.679 64.7012C398.255 62.9491 399.146 61.3167 400.308 59.8842L399.815 60.3768ZM394.337 51.2902C395.28 49.1814 396.684 47.3108 398.446 45.8163C396.873 50.2147 394.95 54.4797 392.694 58.5704C392.666 55.8384 393.386 53.1507 394.775 50.7976L394.337 51.2902ZM386.723 64.9749C387.687 60.7984 389.063 56.7278 390.832 52.8229C389.994 56.8201 388.764 60.7254 387.162 64.4822L386.723 64.9749ZM389.079 43.0794C388.234 46.3618 387.021 49.5386 385.463 52.5492C384.11 55.6557 382.401 58.5947 380.369 61.3074C381.171 58.0192 382.366 54.8397 383.93 51.8376C385.395 48.4972 387.272 45.3527 389.517 42.4772L389.079 43.0794ZM382.396 39.5214C381.677 43.004 380.537 46.3862 379 49.5933C379.784 45.8993 381.017 42.3148 382.67 38.9193L382.396 39.5214ZM368.702 26.2198C368.945 23.8223 369.613 21.4871 370.674 19.3228C370.509 21.4905 369.991 23.6167 369.14 25.6177L368.702 26.2198ZM365.908 15.8195C365.415 17.3522 364.922 18.8848 364.539 20.4175C364.155 21.9502 363.827 23.5376 363.553 25.1251C363.263 21.6107 364.212 18.1057 366.237 15.2174L365.908 15.8195ZM359.883 37.715C358.827 40.1816 357.343 42.4424 355.501 44.3931C356.205 41.8072 357.159 39.2957 358.349 36.8939C359.406 34.5177 360.652 32.2296 362.074 30.0516C361.876 32.4494 361.283 34.7981 360.321 37.0034L359.883 37.715ZM359.883 19.2133C359.76 21.2818 359.297 23.3162 358.513 25.2346C357.882 27.2184 356.899 29.0726 355.61 30.7084C355.912 26.6324 357.397 22.7328 359.883 19.487V19.2133ZM350.352 31.9127C349.969 33.675 349.117 35.3014 347.887 36.6202C347.894 34.7655 348.171 32.9216 348.708 31.1464C349.099 29.4864 349.706 27.8851 350.516 26.3841C350.933 27.9585 350.971 29.6094 350.625 31.2011L350.352 31.9127ZM348.653 6.67813C349.285 11.4963 349.063 16.3881 347.996 21.1292L348.653 6.67813ZM333.48 34.6496C333.639 36.785 333.435 38.9319 332.878 40.9994C332.423 42.9399 331.645 44.7903 330.577 46.4732C330.412 44.3524 330.635 42.2192 331.235 40.1782C331.686 37.9617 332.54 35.8467 333.754 33.938L333.48 34.6496ZM327.893 7.06126C327.893 6.73283 327.893 6.24019 328.386 6.13071C328.453 6.09228 328.528 6.07208 328.605 6.07208C328.682 6.07208 328.758 6.09228 328.824 6.13071V6.45913H328.496C328.112 6.45913 328.496 7.44444 328.496 7.66339C328.496 8.8129 328.496 10.0172 328.496 11.1667C328.632 13.1349 328.632 15.1102 328.496 17.0785C328.25 14.9345 328.14 12.7772 328.167 10.6193C327.988 9.44168 327.897 8.25239 327.893 7.06126ZM324.716 27.862C325.358 24.8358 326.526 21.9455 328.167 19.3228C327.773 22.3492 327.188 25.3476 326.414 28.2999C325.774 31.2731 324.932 34.1993 323.894 37.0582C323.627 33.9715 323.887 30.8619 324.661 27.862H324.716ZM322.799 48.8817C322.799 46.1447 322.525 43.4078 322.361 40.7256C323.334 43.3384 323.468 46.1892 322.744 48.8817H322.799ZM318.8 13.4658C319.238 19.0771 319.238 24.7139 318.8 30.3252C318.344 24.7153 318.325 19.0785 318.745 13.4658H318.8ZM313.322 22.3881C314.235 28.4116 314.235 34.538 313.322 40.5614C312.556 37.5961 312.224 34.5354 312.337 31.4748C312.196 28.4227 312.472 25.3656 313.158 22.3881H313.322ZM310.2 25.0704C309.382 21.2732 308.941 17.4044 308.886 13.5205C309.706 17.3144 310.092 21.1893 310.036 25.0704H310.2ZM310.912 52.9324C309.649 48.382 308.787 43.7297 308.338 39.0288C309.556 43.582 310.362 48.2351 310.748 52.9324H310.912ZM305.435 51.6734C306.186 55.0289 306.716 58.43 307.023 61.8548C303.99 55.5918 302.614 48.6566 303.025 41.7109C304.084 44.9725 304.925 48.3006 305.544 51.6734H305.435ZM302.203 23.3735C303.024 27.1858 303.41 31.0788 303.353 34.9781C302.571 31.1612 302.222 27.2685 302.312 23.3735H302.203ZM295.027 32.8432C295.191 36.0525 295.191 39.268 295.027 42.4772C293.905 39.3904 293.349 36.1271 293.384 32.8432C293.27 29.5626 293.715 26.2865 294.698 23.1545C294.973 26.3763 295.083 29.6102 295.027 32.8432ZM288.728 29.7779C287.789 25.9581 287.257 22.05 287.139 18.1185C288.152 21.9303 288.758 25.8386 288.947 29.7779H288.728ZM287.632 44.831C285.699 40.1414 284.196 35.2862 283.141 30.3252C285.148 35.0076 286.725 39.8629 287.851 44.831H287.632ZM276.677 31.6937C277.543 34.3693 278.166 37.1173 278.539 39.9045C279.116 42.6767 279.392 45.503 279.361 48.3343C278.106 45.8044 277.273 43.0863 276.896 40.2877C276.385 37.4474 276.366 34.5403 276.841 31.6937H276.677ZM277.006 60.4315C275.515 56.7092 274.431 52.8368 273.774 48.8817C275.299 52.5297 276.437 56.3275 277.17 60.2126L277.006 60.4315ZM273.719 41.9299C272.302 37.3944 271.293 32.7413 270.706 28.0262C272.195 32.552 273.259 37.2067 273.883 41.9299H273.719ZM269.063 39.1382C269.536 40.2745 269.921 41.4458 270.213 42.6414C270.887 44.7441 271.184 46.9494 271.09 49.1554C269.968 47.3625 269.137 45.4045 268.625 43.3531C268.303 42.1669 268.065 40.9597 267.913 39.7403C267.913 38.8097 267.913 37.6055 267.091 36.8939C268.351 37.0034 268.844 38.3171 269.227 39.1382H269.063ZM266.324 63.3875C264 60.3471 262.016 57.0614 260.408 53.5892C262.789 56.6218 264.829 59.9078 266.488 63.3875H266.324ZM259.915 61.0885L257.176 56.3261C256.19 54.7934 255.204 53.2608 254.164 51.7281C256.935 54.2656 258.978 57.4973 260.08 61.0885H259.915ZM247.426 114.623C254.541 125.778 260.733 137.494 265.941 149.656C267.146 152.393 268.241 155.13 269.337 157.921C263.859 145.879 258.381 134 251.808 122.396L247.426 114.623ZM279.854 169.69C274.705 158.742 269.885 147.795 264.955 137.175L260.353 127.103C265.502 135.862 270.049 144.839 274.376 153.98C279.416 164.599 284.236 175.383 289.056 186.057L293.658 196.129C288.618 187.48 284.072 178.667 279.854 169.69ZM284.51 200.344C286.078 201.273 287.707 202.096 289.385 202.807C293.055 204.285 296.835 205.489 300.34 206.693C301.984 207.168 303.627 207.715 305.27 208.336C301.846 208.168 298.449 207.636 295.137 206.748C291.186 205.816 287.461 204.104 284.181 201.712C282.706 200.649 281.411 199.355 280.347 197.881C281.99 198.647 283.195 199.523 284.51 200.289V200.344ZM274.924 210.799C273.377 215.964 272.638 221.337 272.733 226.728C272.761 233.13 273.145 239.526 273.883 245.886C274.157 248.514 274.541 251.36 274.924 253.769C273.148 248.558 271.989 243.156 271.473 237.676C270.706 231.202 270.927 224.65 272.13 218.243C272.704 215.625 273.645 213.1 274.924 210.744V210.799ZM263.969 243.642C263.221 239.153 262.8 234.616 262.709 230.067C262.544 225.726 262.819 221.379 263.53 217.094C264.263 212.761 266.029 208.668 268.679 205.161C268.679 206.693 267.967 208.281 267.639 209.814C267.31 211.346 266.872 213.81 266.598 215.78C265.904 219.978 265.538 224.224 265.502 228.48C265.493 237.356 266.225 246.218 267.693 254.973C268.241 258.805 268.899 262.527 269.611 266.304C267.09 258.92 265.274 251.314 264.188 243.587L263.969 243.642ZM268.679 284.368C268.042 285.736 267.888 287.28 268.241 288.747C268.623 290.157 269.08 291.546 269.611 292.907C268.793 292.532 268.08 291.961 267.536 291.245C266.991 290.529 266.631 289.69 266.488 288.802C266.27 287.888 266.395 286.927 266.839 286.099C267.283 285.272 268.016 284.636 268.899 284.313L268.679 284.368ZM393.023 356.294L390.996 357.444L388.147 356.294C392.294 354.562 396.228 352.358 399.87 349.726C400.801 348.96 401.677 348.138 402.499 347.317C400.131 350.955 396.965 354.007 393.242 356.24L393.023 356.294ZM384.642 344.416C385.19 347.098 382.56 349.89 378.233 352.134L359.554 344.416C362.384 342.447 365.592 341.087 368.976 340.42C377.192 338.778 384.094 340.53 384.861 344.361L384.642 344.416ZM396.419 294.33C394.785 295.471 392.911 296.22 390.941 296.52C392.331 295.104 393.895 293.872 395.597 292.852C397.193 291.717 398.9 290.745 400.691 289.951C399.746 291.725 398.347 293.217 396.638 294.275L396.419 294.33Z" fill="#555960"/>
<path d="M483.021 406.162C483.021 405.012 495.017 411.088 498.906 411.362L483.678 404.355C478.201 401.782 457.167 392.805 450.21 389.74C455.249 393.955 463.247 396.363 459.029 396.582C457.495 396.582 446.375 391.437 434.379 387.879C453.058 395.925 493.1 413.332 505.589 419.135C501.317 415.631 483.405 408.461 483.021 406.162Z" fill="#555960"/>
<path d="M350.078 350.328C349.147 351.094 347.12 350.711 343.176 349.89C357.747 355.802 377.576 364.177 390.339 369.486C384.861 365.819 367.552 359.031 370.236 358.21C371.715 357.772 411.866 375.234 423.095 377.971C396.255 365.709 322.47 335.877 301.929 327.666C310.201 332.593 351.447 349.397 350.078 350.328Z" fill="#555960"/>
<path d="M420.247 444.807C420.247 444.807 463.247 462.378 485.979 469.987L489.43 467.25L456.016 453.675C483.295 467.797 442.925 452.635 420.247 444.807Z" fill="#555960"/>
<path d="M367.223 420.339C353.036 413.715 338.575 407.694 324.059 402.001C311.187 397.02 298.204 392.148 285.058 387.879C290.864 390.616 296.78 393.079 302.696 395.652C311.46 399.301 320.279 402.95 329.153 406.599L356.542 417.547L378.178 426.36L387.107 429.973C380.589 426.962 373.961 423.514 367.223 420.339Z" fill="#555960"/>
<path d="M258.875 374.523C261.278 374.566 263.647 375.107 265.831 376.11C271.309 378.08 279.964 381.584 291.029 385.525L254.054 369.541C251.111 368.217 248.785 365.819 247.553 362.837C246.321 359.856 246.276 356.516 247.426 353.503L254 338.614C253.267 339.759 252.462 340.856 251.589 341.898C249.874 344.42 247.585 346.499 244.909 347.965C242.233 349.43 239.247 350.24 236.197 350.328C235.497 350.287 234.811 350.12 234.17 349.835C231.76 348.795 226.721 346.332 222.393 344.361L222.722 345.511C228.857 349.671 235.923 355.364 232.089 357.389C230.206 357.901 228.22 357.901 226.337 357.389L228.09 363.192L229.569 363.848C245.235 371.074 265.886 379.996 265.886 379.996L262.326 377.752C260.08 375.946 258.765 374.906 258.875 374.523Z" fill="#555960"/>
<path d="M505.918 423.952C505.534 425.703 505.096 427.4 504.658 429.042C502.607 436.319 499.605 443.295 495.729 449.788L494.634 450.226C494.962 449.514 495.401 448.748 495.729 448.037C498.84 441.198 501.049 433.985 502.303 426.579C499.927 435.265 496.232 443.535 491.347 451.102H490.416C494.254 443.827 497.057 436.052 498.742 428.002C496.178 436.272 492.394 444.113 487.513 451.266H486.746C490.63 444.151 493.541 436.548 495.401 428.659C492.745 436.605 488.923 444.113 484.062 450.938H483.295C487.052 444.194 489.941 437.002 491.895 429.535C489.134 437.034 485.336 444.109 480.611 450.554H479.954C483.73 443.903 486.656 436.805 488.663 429.425C485.851 436.72 482.074 443.605 477.434 449.898H476.667C480.329 443.558 483.199 436.792 485.212 429.754C482.42 436.696 478.737 443.246 474.257 449.241H473.6C477.114 443.17 479.89 436.701 481.871 429.973C478.993 436.566 475.314 442.78 470.915 448.474H470.203C473.624 442.563 476.362 436.282 478.365 429.754C475.581 436.133 472.051 442.159 467.848 447.708H467.136C470.45 441.983 473.114 435.906 475.078 429.59C472.299 435.737 468.845 441.556 464.781 446.942L464.123 446.668C467.338 441.029 469.945 435.066 471.901 428.878C469.136 434.907 465.72 440.615 461.713 445.902L461.001 445.628C464.169 440.081 466.775 434.231 468.779 428.166C466.008 434.066 462.63 439.661 458.7 444.862L457.988 444.588C461.079 439.158 463.629 433.437 465.602 427.51C462.826 433.297 459.487 438.797 455.633 443.931L455.03 443.657C457.999 438.336 460.456 432.746 462.37 426.962C459.673 432.573 456.406 437.893 452.62 442.836H452.018C454.941 437.588 457.398 432.093 459.358 426.415C456.605 431.949 453.36 437.225 449.662 442.179H449.06C451.928 436.919 454.347 431.426 456.29 425.758C453.544 431.284 450.318 436.559 446.649 441.523L446.047 441.249C448.903 435.99 451.304 430.496 453.223 424.827C450.527 430.318 447.317 435.541 443.637 440.428H443.034C445.891 435.176 448.274 429.68 450.155 424.006C447.443 429.43 444.273 434.612 440.679 439.497H440.076C442.831 434.313 445.157 428.912 447.033 423.349C444.355 428.688 441.241 433.796 437.721 438.621H437.173C439.929 433.343 442.255 427.851 444.13 422.2C441.455 427.604 438.321 432.768 434.763 437.636H435.037H434.215C436.957 432.25 439.3 426.669 441.227 420.941C438.538 426.36 435.425 431.559 431.914 436.487L432.9 437.089L431.202 436.432C433.955 431.152 436.282 425.661 438.159 420.01C435.471 425.43 432.357 430.628 428.847 435.556H428.299C431.018 430.14 433.361 424.544 435.311 418.806C432.566 424.287 429.416 429.557 425.889 434.571H425.286C427.985 429.273 430.292 423.784 432.188 418.149C429.496 423.527 426.421 428.704 422.986 433.64L423.643 434.023L422.329 433.531C424.995 428.218 427.301 422.732 429.23 417.109C426.508 422.534 423.415 427.765 419.973 432.764H419.425C422.081 427.36 424.369 421.782 426.272 416.069C423.569 421.511 420.494 426.76 417.07 431.779H416.467C419.082 426.363 421.351 420.787 423.26 415.084C420.582 420.534 417.544 425.801 414.167 430.848H413.564C416.137 425.521 418.369 420.036 420.247 414.427C417.598 419.836 414.597 425.065 411.264 430.082H410.661C413.268 424.55 415.536 418.865 417.453 413.058C414.726 418.581 411.671 423.937 408.306 429.097H407.758C410.305 423.59 412.537 417.943 414.441 412.183C411.741 417.663 408.723 422.982 405.402 428.112H404.855C407.352 422.59 409.564 416.945 411.483 411.197C408.775 416.653 405.795 421.969 402.554 427.126H402.006C404.417 421.652 406.662 415.741 408.634 409.938C405.896 415.412 402.883 420.886 399.651 426.36L399.103 426.086C401.459 420.612 403.595 415.138 405.512 409.281C402.773 414.755 400.034 419.956 396.748 425.101H396.2C398.555 419.627 400.692 413.825 402.664 408.077C399.925 413.551 397.186 419.025 393.845 424.116L393.297 423.842C395.652 418.368 397.734 412.566 399.651 406.818C396.967 412.292 394.173 417.766 390.996 422.857H390.448C392.694 417.383 394.776 411.635 396.638 405.942C393.954 411.416 391.161 416.616 388.093 421.817H387.545C389.736 416.343 391.818 410.869 393.68 404.957C390.996 410.431 388.203 415.576 385.245 420.777H384.697C386.888 415.303 388.969 409.336 390.887 403.589C388.148 409.063 385.409 414.536 382.342 420.01L381.849 419.737L382.506 417.821L387.984 403.096L386.943 405.067L379.767 418.696H379.219L379.931 416.726L385.409 401.728C385.026 402.384 384.697 403.041 384.368 403.753L377.138 417.656H376.59L377.247 415.741C378.945 410.759 380.698 405.778 382.396 400.852L381.355 402.822C379 407.42 376.645 412.018 374.235 416.616H373.742L374.399 414.646C376.097 409.555 377.85 404.519 379.603 399.483L378.562 401.509C376.152 406.161 373.796 410.869 371.386 415.576L370.838 415.303L371.496 413.387C373.194 408.406 374.892 403.37 376.535 398.388L375.549 400.359C373.194 405.012 370.893 409.665 368.538 414.263H367.99L368.593 412.402C370.291 407.366 371.934 402.384 373.577 397.348L372.591 399.374L365.689 413.223L365.142 412.949C365.375 412.321 365.576 411.682 365.744 411.033C367.442 405.997 369.086 400.961 370.729 395.925C370.4 396.582 370.072 397.294 369.688 397.951L362.841 411.909H362.293C362.461 411.278 362.662 410.657 362.896 410.048C364.484 405.012 366.128 399.976 367.771 394.94L366.785 396.965C364.484 401.563 362.238 406.216 359.993 410.869L359.445 410.595L359.993 408.734C361.636 403.643 363.279 398.553 364.868 393.462L363.882 395.542L357.089 409.555L356.542 409.281L357.144 407.475L361.91 392.258L360.924 394.338L354.241 408.241H353.693C355.391 402.494 357.144 396.746 359.171 391.053C356.487 396.527 353.967 402.001 351.557 407.475L350.954 407.201C352.561 401.472 354.387 395.779 356.432 390.123C353.748 395.597 351.283 400.742 348.928 406.161L348.325 405.888C349.914 400.085 351.612 394.338 353.803 388.7C351.064 394.174 348.325 399.374 346.298 404.848L345.696 404.574C347.175 398.826 348.873 393.079 350.79 387.441C348.161 392.915 345.696 398.06 343.45 403.479L342.847 403.205C344.326 397.403 345.97 391.71 347.942 386.017C345.258 391.491 342.848 396.692 340.602 402.165L339.999 401.892C341.369 396.144 343.012 390.506 344.929 384.923C342.27 390.108 339.875 395.425 337.753 400.852L337.151 400.578C338.453 394.756 340.099 389.017 342.081 383.39C339.388 388.616 336.993 393.989 334.905 399.483L334.302 399.21C335.531 393.476 337.123 387.827 339.068 382.295C336.43 387.449 334.089 392.749 332.056 398.169L331.454 397.841C332.682 392.03 334.293 386.307 336.274 380.708C333.585 385.92 331.225 391.295 329.208 396.801H328.606C329.783 390.948 331.375 385.186 333.371 379.558C330.669 384.783 328.309 390.177 326.305 395.706H325.757C326.908 389.829 328.501 384.047 330.523 378.409C327.806 383.713 325.463 389.2 323.511 394.83H322.909C324.023 389.009 325.579 383.282 327.565 377.697C324.843 382.86 322.518 388.221 320.608 393.736H320.006C321.119 387.897 322.676 382.151 324.662 376.548C321.997 378.648 319.42 380.858 316.938 383.171H316.336C317.435 377.27 319.01 371.466 321.046 365.819C318.261 371.084 315.934 376.578 314.09 382.24H313.487C314.483 376.304 316.042 370.475 318.143 364.834C315.354 370.089 313.044 375.585 311.241 381.255L310.639 380.927C311.627 374.87 313.223 368.928 315.404 363.191C312.55 368.437 310.184 373.934 308.338 379.613L307.736 379.285C308.728 373.164 310.362 367.164 312.611 361.385C309.644 366.717 307.257 372.351 305.49 378.19L304.887 377.916C305.825 371.665 307.498 365.547 309.872 359.688C306.827 365.11 304.401 370.857 302.641 376.821L302.039 376.493C302.968 370.122 304.679 363.89 307.133 357.937C304.025 363.457 301.562 369.316 299.793 375.398L299.19 375.124C300.106 368.691 301.836 362.401 304.339 356.404C301.153 361.957 298.652 367.875 296.89 374.03L296.287 373.701C297.236 367.044 299.078 360.544 301.765 354.378C298.402 360.097 295.788 366.223 293.987 372.607L293.439 372.333C294.274 365.511 296.12 358.851 298.917 352.572C295.385 358.387 292.692 364.671 290.919 371.238L290.317 370.964C291.274 363.892 293.306 357.007 296.342 350.547C292.645 356.538 289.875 363.052 288.126 369.87L287.468 369.541C288.409 362.256 290.537 355.174 293.768 348.576C289.909 354.718 287.026 361.421 285.222 368.446L284.62 368.118C285.556 360.486 287.817 353.077 291.303 346.222C287.237 352.525 284.204 359.436 282.319 366.695C282.14 366.536 281.937 366.406 281.717 366.312C282.801 358.4 285.287 350.745 289.057 343.704C284.705 350.177 281.482 357.34 279.526 364.888L278.923 364.45C280.105 356.271 282.798 348.382 286.866 341.186C286.154 342.281 285.387 343.431 284.675 344.635C281.105 350.24 278.443 356.374 276.787 362.808L276.129 362.206C276.268 360.826 276.488 359.455 276.787 358.101C278.516 351.225 281.209 344.628 284.784 338.504C284.017 339.654 283.305 340.803 282.538 341.898C278.774 347.546 275.927 353.754 274.103 360.29L273.5 359.633C274.076 355.655 275.124 351.759 276.622 348.029C278.41 343.826 280.478 339.748 282.812 335.822L279.854 340.092C276.261 345.4 273.473 351.21 271.583 357.334L270.926 356.404C271.71 352.393 272.941 348.482 274.596 344.745C276.479 340.661 278.639 336.711 281.059 332.921L277.937 337.081C274.322 342.138 271.411 347.663 269.282 353.503C269.282 353.119 268.899 352.736 268.735 352.298C269.64 348.529 270.924 344.861 272.569 341.351C274.594 337.319 276.881 333.424 279.416 329.691C276.502 333.153 273.83 336.811 271.419 340.639C269.956 343.097 268.675 345.658 267.584 348.303C267.467 347.852 267.375 347.395 267.31 346.934C268.313 343.708 269.596 340.576 271.145 337.574C273.004 334.049 275.09 330.648 277.389 327.392C282.519 326.753 287.723 327.648 292.343 329.965C302.367 333.687 311.68 337.3 319.732 340.584C314.857 337.683 284.456 323.561 277.006 323.068C276.628 322.975 276.233 322.975 275.856 323.068C269.718 325.362 263.856 328.336 258.382 331.936L250.275 352.572C247.481 359.907 249.398 364.724 258.984 368.994C313.761 394.174 468.286 456.576 491.238 465.279C495.561 460.547 499.093 455.15 501.7 449.295C503.273 445.963 504.609 442.525 505.699 439.005C505.64 439.169 505.547 439.318 505.425 439.443C507.251 433.336 508.48 427.066 509.095 420.722C508.711 422.473 508.383 424.225 507.944 426.196C506.313 433.245 503.772 440.053 500.385 446.449L499.235 447.434L499.618 446.613C502.683 439.361 504.8 431.744 505.918 423.952ZM267.639 342.117C267.967 339.199 268.86 336.373 270.268 333.797L272.295 330.731C273.808 329.22 275.7 328.142 277.773 327.611L275.637 330.184C272.59 333.893 269.912 337.89 267.639 342.117Z" fill="#555960"/>
</g>
<defs>
<clipPath id="clip0_16_209">
<rect width="590" height="484" fill="white"/>
</clipPath>
</defs>
</svg>
